<mxfile host="app.diagrams.net" modified="2024-03-05T05:22:40.960Z" agent="Mozilla/5.0 (X11; Ubuntu; Linux x86_64; rv:123.0) Gecko/20100101 Firefox/123.0" etag="z5J-4l2jK_nATNFUCmbP" version="24.0.1" type="device">
  <diagram id="R2lEEEUBdFMjLlhIrx00" name="Page-1">
    <mxGraphModel dx="2284" dy="795" grid="1" gridSize="10" guides="1" tooltips="1" connect="1" arrows="1" fold="1" page="1" pageScale="1" pageWidth="850" pageHeight="1100" math="0" shadow="0" extFonts="Permanent Marker^https://fonts.googleapis.com/css?family=Permanent+Marker">
      <root>
        <mxCell id="0" />
        <mxCell id="1" parent="0" />
        <mxCell id="mw0KVpR6ZASn544iT4bN-1" value="Hotel" style="whiteSpace=wrap;html=1;align=center;" parent="1" vertex="1">
          <mxGeometry x="-100" y="410" width="100" height="40" as="geometry" />
        </mxCell>
        <mxCell id="mw0KVpR6ZASn544iT4bN-3" value="Nombre establecimiento" style="ellipse;whiteSpace=wrap;html=1;align=center;" parent="1" vertex="1">
          <mxGeometry x="-275" y="350" width="140" height="40" as="geometry" />
        </mxCell>
        <mxCell id="mw0KVpR6ZASn544iT4bN-5" value="Dirección" style="ellipse;whiteSpace=wrap;html=1;align=center;" parent="1" vertex="1">
          <mxGeometry x="-5" y="280" width="100" height="40" as="geometry" />
        </mxCell>
        <mxCell id="mw0KVpR6ZASn544iT4bN-7" value="Numero exterior" style="ellipse;whiteSpace=wrap;html=1;align=center;" parent="1" vertex="1">
          <mxGeometry x="-110" y="190" width="100" height="40" as="geometry" />
        </mxCell>
        <mxCell id="mw0KVpR6ZASn544iT4bN-8" value="Calle" style="ellipse;whiteSpace=wrap;html=1;align=center;" parent="1" vertex="1">
          <mxGeometry x="120" y="190" width="100" height="40" as="geometry" />
        </mxCell>
        <mxCell id="mw0KVpR6ZASn544iT4bN-9" value="Numero interior" style="ellipse;whiteSpace=wrap;html=1;align=center;" parent="1" vertex="1">
          <mxGeometry x="-125" y="250" width="100" height="40" as="geometry" />
        </mxCell>
        <mxCell id="mw0KVpR6ZASn544iT4bN-10" value="Colonia" style="ellipse;whiteSpace=wrap;html=1;align=center;" parent="1" vertex="1">
          <mxGeometry x="-5" y="170" width="100" height="40" as="geometry" />
        </mxCell>
        <mxCell id="mw0KVpR6ZASn544iT4bN-11" value="Estado" style="ellipse;whiteSpace=wrap;html=1;align=center;" parent="1" vertex="1">
          <mxGeometry x="135" y="245" width="100" height="40" as="geometry" />
        </mxCell>
        <mxCell id="mw0KVpR6ZASn544iT4bN-19" value="" style="endArrow=none;html=1;rounded=0;exitX=0.5;exitY=0;exitDx=0;exitDy=0;entryX=0.5;entryY=1;entryDx=0;entryDy=0;" parent="1" source="mw0KVpR6ZASn544iT4bN-5" target="mw0KVpR6ZASn544iT4bN-10" edge="1">
          <mxGeometry width="50" height="50" relative="1" as="geometry">
            <mxPoint x="65" y="210" as="sourcePoint" />
            <mxPoint x="45" y="180" as="targetPoint" />
          </mxGeometry>
        </mxCell>
        <mxCell id="mw0KVpR6ZASn544iT4bN-24" value="Número total de habitaciones" style="ellipse;whiteSpace=wrap;html=1;align=center;" parent="1" vertex="1">
          <mxGeometry x="-155" y="500" width="105" height="40" as="geometry" />
        </mxCell>
        <mxCell id="mw0KVpR6ZASn544iT4bN-26" value="Número de habitaciones ocupadas" style="ellipse;whiteSpace=wrap;html=1;align=center;" parent="1" vertex="1">
          <mxGeometry x="-265" y="260" width="140" height="70" as="geometry" />
        </mxCell>
        <mxCell id="mw0KVpR6ZASn544iT4bN-29" value="" style="endArrow=none;html=1;rounded=0;entryX=0;entryY=0.5;entryDx=0;entryDy=0;exitX=1;exitY=0.5;exitDx=0;exitDy=0;" parent="1" source="mw0KVpR6ZASn544iT4bN-107" target="mw0KVpR6ZASn544iT4bN-1" edge="1">
          <mxGeometry width="50" height="50" relative="1" as="geometry">
            <mxPoint x="-155" y="430" as="sourcePoint" />
            <mxPoint x="-105" y="380" as="targetPoint" />
          </mxGeometry>
        </mxCell>
        <mxCell id="mw0KVpR6ZASn544iT4bN-30" value="" style="endArrow=none;html=1;rounded=0;exitX=1;exitY=0.5;exitDx=0;exitDy=0;entryX=0;entryY=0;entryDx=0;entryDy=0;" parent="1" source="mw0KVpR6ZASn544iT4bN-3" target="mw0KVpR6ZASn544iT4bN-1" edge="1">
          <mxGeometry width="50" height="50" relative="1" as="geometry">
            <mxPoint x="-115" y="390" as="sourcePoint" />
            <mxPoint x="-65" y="340" as="targetPoint" />
          </mxGeometry>
        </mxCell>
        <mxCell id="mw0KVpR6ZASn544iT4bN-31" value="" style="endArrow=none;html=1;rounded=0;entryX=1;entryY=1;entryDx=0;entryDy=0;exitX=0;exitY=0.25;exitDx=0;exitDy=0;exitPerimeter=0;" parent="1" source="wEImqkiq318mmv_adKS5-4" target="mw0KVpR6ZASn544iT4bN-1" edge="1">
          <mxGeometry width="50" height="50" relative="1" as="geometry">
            <mxPoint x="519" y="652" as="sourcePoint" />
            <mxPoint x="595" y="602.5" as="targetPoint" />
          </mxGeometry>
        </mxCell>
        <mxCell id="mw0KVpR6ZASn544iT4bN-33" value="" style="endArrow=none;html=1;rounded=0;exitX=1;exitY=0.5;exitDx=0;exitDy=0;entryX=0;entryY=1;entryDx=0;entryDy=0;" parent="1" target="mw0KVpR6ZASn544iT4bN-1" edge="1">
          <mxGeometry width="50" height="50" relative="1" as="geometry">
            <mxPoint x="-142.5" y="490" as="sourcePoint" />
            <mxPoint x="-65" y="430" as="targetPoint" />
          </mxGeometry>
        </mxCell>
        <mxCell id="mw0KVpR6ZASn544iT4bN-37" value="" style="endArrow=none;html=1;rounded=0;exitX=0.75;exitY=0;exitDx=0;exitDy=0;entryX=0.5;entryY=1;entryDx=0;entryDy=0;" parent="1" source="mw0KVpR6ZASn544iT4bN-1" target="mw0KVpR6ZASn544iT4bN-5" edge="1">
          <mxGeometry width="50" height="50" relative="1" as="geometry">
            <mxPoint x="-65" y="400" as="sourcePoint" />
            <mxPoint x="15" y="330" as="targetPoint" />
          </mxGeometry>
        </mxCell>
        <mxCell id="mw0KVpR6ZASn544iT4bN-38" value="" style="endArrow=none;html=1;rounded=0;exitX=0;exitY=0.5;exitDx=0;exitDy=0;entryX=0.5;entryY=1;entryDx=0;entryDy=0;" parent="1" source="mw0KVpR6ZASn544iT4bN-5" target="mw0KVpR6ZASn544iT4bN-9" edge="1">
          <mxGeometry width="50" height="50" relative="1" as="geometry">
            <mxPoint x="-35" y="295" as="sourcePoint" />
            <mxPoint x="15" y="245" as="targetPoint" />
          </mxGeometry>
        </mxCell>
        <mxCell id="mw0KVpR6ZASn544iT4bN-39" value="" style="endArrow=none;html=1;rounded=0;exitX=1;exitY=0.5;exitDx=0;exitDy=0;entryX=0.5;entryY=1;entryDx=0;entryDy=0;" parent="1" source="mw0KVpR6ZASn544iT4bN-5" target="mw0KVpR6ZASn544iT4bN-11" edge="1">
          <mxGeometry width="50" height="50" relative="1" as="geometry">
            <mxPoint x="110" y="310" as="sourcePoint" />
            <mxPoint x="120" y="310" as="targetPoint" />
          </mxGeometry>
        </mxCell>
        <mxCell id="mw0KVpR6ZASn544iT4bN-40" value="" style="endArrow=none;html=1;rounded=0;exitX=0.322;exitY=0.015;exitDx=0;exitDy=0;exitPerimeter=0;entryX=1;entryY=1;entryDx=0;entryDy=0;" parent="1" source="mw0KVpR6ZASn544iT4bN-5" target="mw0KVpR6ZASn544iT4bN-7" edge="1">
          <mxGeometry width="50" height="50" relative="1" as="geometry">
            <mxPoint x="-10" y="260" as="sourcePoint" />
            <mxPoint x="50" y="200" as="targetPoint" />
          </mxGeometry>
        </mxCell>
        <mxCell id="mw0KVpR6ZASn544iT4bN-41" value="" style="endArrow=none;html=1;rounded=0;entryX=0;entryY=1;entryDx=0;entryDy=0;exitX=0.754;exitY=0.055;exitDx=0;exitDy=0;exitPerimeter=0;" parent="1" source="mw0KVpR6ZASn544iT4bN-5" target="mw0KVpR6ZASn544iT4bN-8" edge="1">
          <mxGeometry width="50" height="50" relative="1" as="geometry">
            <mxPoint x="70" y="290" as="sourcePoint" />
            <mxPoint x="120" y="240" as="targetPoint" />
          </mxGeometry>
        </mxCell>
        <mxCell id="mw0KVpR6ZASn544iT4bN-49" value="Habitación" style="whiteSpace=wrap;html=1;align=center;" parent="1" vertex="1">
          <mxGeometry x="1025" y="215" width="100" height="40" as="geometry" />
        </mxCell>
        <mxCell id="mw0KVpR6ZASn544iT4bN-53" value="Disponibilidad" style="ellipse;whiteSpace=wrap;html=1;align=center;" parent="1" vertex="1">
          <mxGeometry x="1145" y="165" width="100" height="40" as="geometry" />
        </mxCell>
        <mxCell id="mw0KVpR6ZASn544iT4bN-56" value="Costo por noche" style="ellipse;whiteSpace=wrap;html=1;align=center;" parent="1" vertex="1">
          <mxGeometry x="1155" y="245" width="100" height="40" as="geometry" />
        </mxCell>
        <mxCell id="mw0KVpR6ZASn544iT4bN-57" value="Número de camas" style="ellipse;whiteSpace=wrap;html=1;align=center;" parent="1" vertex="1">
          <mxGeometry x="875" y="120" width="110" height="60" as="geometry" />
        </mxCell>
        <mxCell id="mw0KVpR6ZASn544iT4bN-60" value="" style="endArrow=none;html=1;rounded=0;exitX=0;exitY=0;exitDx=0;exitDy=0;entryX=1;entryY=1;entryDx=0;entryDy=0;" parent="1" source="mw0KVpR6ZASn544iT4bN-49" target="mw0KVpR6ZASn544iT4bN-57" edge="1">
          <mxGeometry width="50" height="50" relative="1" as="geometry">
            <mxPoint x="1025" y="205" as="sourcePoint" />
            <mxPoint x="1075" y="155" as="targetPoint" />
          </mxGeometry>
        </mxCell>
        <mxCell id="mw0KVpR6ZASn544iT4bN-61" value="" style="endArrow=none;html=1;rounded=0;exitX=1;exitY=0;exitDx=0;exitDy=0;entryX=0;entryY=1;entryDx=0;entryDy=0;" parent="1" source="mw0KVpR6ZASn544iT4bN-49" target="mw0KVpR6ZASn544iT4bN-53" edge="1">
          <mxGeometry width="50" height="50" relative="1" as="geometry">
            <mxPoint x="1130" y="225" as="sourcePoint" />
            <mxPoint x="1180" y="175" as="targetPoint" />
          </mxGeometry>
        </mxCell>
        <mxCell id="mw0KVpR6ZASn544iT4bN-62" value="" style="endArrow=none;html=1;rounded=0;exitX=0;exitY=0.5;exitDx=0;exitDy=0;entryX=1;entryY=1;entryDx=0;entryDy=0;" parent="1" source="mw0KVpR6ZASn544iT4bN-56" target="mw0KVpR6ZASn544iT4bN-49" edge="1">
          <mxGeometry width="50" height="50" relative="1" as="geometry">
            <mxPoint x="1145" y="260" as="sourcePoint" />
            <mxPoint x="1195" y="210" as="targetPoint" />
          </mxGeometry>
        </mxCell>
        <mxCell id="mw0KVpR6ZASn544iT4bN-63" value="" style="triangle;whiteSpace=wrap;html=1;rotation=90;" parent="1" vertex="1">
          <mxGeometry x="1045" y="295" width="60" height="80" as="geometry" />
        </mxCell>
        <mxCell id="mw0KVpR6ZASn544iT4bN-65" value="Doble" style="whiteSpace=wrap;html=1;align=center;" parent="1" vertex="1">
          <mxGeometry x="965" y="415" width="100" height="40" as="geometry" />
        </mxCell>
        <mxCell id="mw0KVpR6ZASn544iT4bN-66" value="Individual" style="whiteSpace=wrap;html=1;align=center;" parent="1" vertex="1">
          <mxGeometry x="850" y="415" width="100" height="40" as="geometry" />
        </mxCell>
        <mxCell id="mw0KVpR6ZASn544iT4bN-67" value="Cuadrúple" style="whiteSpace=wrap;html=1;align=center;" parent="1" vertex="1">
          <mxGeometry x="1085" y="415" width="100" height="40" as="geometry" />
        </mxCell>
        <mxCell id="mw0KVpR6ZASn544iT4bN-69" value="Penthouse" style="whiteSpace=wrap;html=1;align=center;" parent="1" vertex="1">
          <mxGeometry x="1205" y="415" width="100" height="40" as="geometry" />
        </mxCell>
        <mxCell id="mw0KVpR6ZASn544iT4bN-70" value="" style="endArrow=none;html=1;rounded=0;exitX=0.5;exitY=0;exitDx=0;exitDy=0;entryX=0.123;entryY=0.94;entryDx=0;entryDy=0;entryPerimeter=0;" parent="1" source="mw0KVpR6ZASn544iT4bN-66" target="mw0KVpR6ZASn544iT4bN-63" edge="1">
          <mxGeometry width="50" height="50" relative="1" as="geometry">
            <mxPoint x="945" y="395" as="sourcePoint" />
            <mxPoint x="995" y="345" as="targetPoint" />
          </mxGeometry>
        </mxCell>
        <mxCell id="mw0KVpR6ZASn544iT4bN-71" value="" style="endArrow=none;html=1;rounded=0;exitX=0.5;exitY=0;exitDx=0;exitDy=0;entryX=0.5;entryY=1;entryDx=0;entryDy=0;" parent="1" source="mw0KVpR6ZASn544iT4bN-65" target="mw0KVpR6ZASn544iT4bN-63" edge="1">
          <mxGeometry width="50" height="50" relative="1" as="geometry">
            <mxPoint x="1015" y="365" as="sourcePoint" />
            <mxPoint x="1065" y="315" as="targetPoint" />
          </mxGeometry>
        </mxCell>
        <mxCell id="mw0KVpR6ZASn544iT4bN-72" value="" style="endArrow=none;html=1;rounded=0;exitX=0.5;exitY=0;exitDx=0;exitDy=0;entryX=0.5;entryY=0;entryDx=0;entryDy=0;" parent="1" source="mw0KVpR6ZASn544iT4bN-63" target="mw0KVpR6ZASn544iT4bN-67" edge="1">
          <mxGeometry width="50" height="50" relative="1" as="geometry">
            <mxPoint x="1170" y="395" as="sourcePoint" />
            <mxPoint x="1220" y="345" as="targetPoint" />
          </mxGeometry>
        </mxCell>
        <mxCell id="mw0KVpR6ZASn544iT4bN-73" value="" style="endArrow=none;html=1;rounded=0;exitX=0.137;exitY=0.09;exitDx=0;exitDy=0;exitPerimeter=0;entryX=0.5;entryY=0;entryDx=0;entryDy=0;" parent="1" source="mw0KVpR6ZASn544iT4bN-63" target="mw0KVpR6ZASn544iT4bN-69" edge="1">
          <mxGeometry width="50" height="50" relative="1" as="geometry">
            <mxPoint x="1180" y="355" as="sourcePoint" />
            <mxPoint x="1230" y="305" as="targetPoint" />
          </mxGeometry>
        </mxCell>
        <mxCell id="mw0KVpR6ZASn544iT4bN-74" value="Número de habitación" style="ellipse;whiteSpace=wrap;html=1;align=center;" parent="1" vertex="1">
          <mxGeometry x="852.5" y="185" width="105" height="50" as="geometry" />
        </mxCell>
        <mxCell id="mw0KVpR6ZASn544iT4bN-76" value="" style="endArrow=none;html=1;rounded=0;" parent="1" edge="1">
          <mxGeometry width="50" height="50" relative="1" as="geometry">
            <mxPoint x="1069.5" y="305" as="sourcePoint" />
            <mxPoint x="1069.5" y="255" as="targetPoint" />
          </mxGeometry>
        </mxCell>
        <mxCell id="mw0KVpR6ZASn544iT4bN-77" value="" style="endArrow=none;html=1;rounded=0;" parent="1" edge="1">
          <mxGeometry width="50" height="50" relative="1" as="geometry">
            <mxPoint x="1079.5" y="305" as="sourcePoint" />
            <mxPoint x="1079.5" y="255" as="targetPoint" />
          </mxGeometry>
        </mxCell>
        <mxCell id="mw0KVpR6ZASn544iT4bN-80" value="&lt;b&gt;&lt;font style=&quot;font-size: 19px;&quot;&gt;d&lt;/font&gt;&lt;/b&gt;" style="text;strokeColor=none;fillColor=none;align=left;verticalAlign=middle;spacingLeft=4;spacingRight=4;overflow=hidden;points=[[0,0.5],[1,0.5]];portConstraint=eastwest;rotatable=0;whiteSpace=wrap;html=1;" parent="1" vertex="1">
          <mxGeometry x="1065" y="315" width="20" height="30" as="geometry" />
        </mxCell>
        <mxCell id="mw0KVpR6ZASn544iT4bN-81" value="Huésped" style="whiteSpace=wrap;html=1;align=center;" parent="1" vertex="1">
          <mxGeometry x="512.5" y="960" width="100" height="40" as="geometry" />
        </mxCell>
        <mxCell id="mw0KVpR6ZASn544iT4bN-94" value="Nacionalidad" style="ellipse;whiteSpace=wrap;html=1;align=center;" parent="1" vertex="1">
          <mxGeometry x="385" y="975" width="100" height="40" as="geometry" />
        </mxCell>
        <mxCell id="mw0KVpR6ZASn544iT4bN-96" value="Fecha de nacimiento" style="ellipse;whiteSpace=wrap;html=1;align=center;" parent="1" vertex="1">
          <mxGeometry x="300" y="680" width="100" height="40" as="geometry" />
        </mxCell>
        <mxCell id="mw0KVpR6ZASn544iT4bN-101" value="Género" style="ellipse;whiteSpace=wrap;html=1;align=center;" parent="1" vertex="1">
          <mxGeometry x="440" y="745" width="100" height="40" as="geometry" />
        </mxCell>
        <mxCell id="mw0KVpR6ZASn544iT4bN-107" value="Telefono" style="ellipse;shape=doubleEllipse;margin=3;whiteSpace=wrap;html=1;align=center;" parent="1" vertex="1">
          <mxGeometry x="-267.5" y="410" width="100" height="40" as="geometry" />
        </mxCell>
        <mxCell id="mw0KVpR6ZASn544iT4bN-108" value="Membresia" style="whiteSpace=wrap;html=1;align=center;" parent="1" vertex="1">
          <mxGeometry x="875" y="960" width="100" height="40" as="geometry" />
        </mxCell>
        <mxCell id="mw0KVpR6ZASn544iT4bN-109" value="&lt;u&gt;Numero de membresia&lt;/u&gt;" style="ellipse;whiteSpace=wrap;html=1;align=center;" parent="1" vertex="1">
          <mxGeometry x="820" y="1027.5" width="100" height="40" as="geometry" />
        </mxCell>
        <mxCell id="mw0KVpR6ZASn544iT4bN-110" value="Activa" style="ellipse;whiteSpace=wrap;html=1;align=center;" parent="1" vertex="1">
          <mxGeometry x="940" y="1027.5" width="100" height="40" as="geometry" />
        </mxCell>
        <mxCell id="mw0KVpR6ZASn544iT4bN-113" value="OBTENER" style="shape=rhombus;perimeter=rhombusPerimeter;whiteSpace=wrap;html=1;align=center;" parent="1" vertex="1">
          <mxGeometry x="680" y="950" width="120" height="60" as="geometry" />
        </mxCell>
        <mxCell id="mw0KVpR6ZASn544iT4bN-118" value="Visitas por año" style="ellipse;whiteSpace=wrap;html=1;align=center;" parent="1" vertex="1">
          <mxGeometry x="682.5" y="880" width="115" height="45" as="geometry" />
        </mxCell>
        <mxCell id="mw0KVpR6ZASn544iT4bN-122" value="" style="endArrow=none;html=1;rounded=0;exitX=0.25;exitY=0;exitDx=0;exitDy=0;entryX=1;entryY=1;entryDx=0;entryDy=0;" parent="1" source="mw0KVpR6ZASn544iT4bN-1" target="mw0KVpR6ZASn544iT4bN-26" edge="1">
          <mxGeometry width="50" height="50" relative="1" as="geometry">
            <mxPoint x="-55" y="370" as="sourcePoint" />
            <mxPoint x="-5" y="320" as="targetPoint" />
          </mxGeometry>
        </mxCell>
        <mxCell id="mw0KVpR6ZASn544iT4bN-128" value="Empleado" style="whiteSpace=wrap;html=1;align=center;" parent="1" vertex="1">
          <mxGeometry x="-200" y="1020" width="100" height="40" as="geometry" />
        </mxCell>
        <mxCell id="mw0KVpR6ZASn544iT4bN-129" value="" style="triangle;whiteSpace=wrap;html=1;rotation=90;" parent="1" vertex="1">
          <mxGeometry x="-180" y="1100" width="60" height="80" as="geometry" />
        </mxCell>
        <mxCell id="mw0KVpR6ZASn544iT4bN-130" value="" style="endArrow=none;html=1;rounded=0;" parent="1" edge="1">
          <mxGeometry width="50" height="50" relative="1" as="geometry">
            <mxPoint x="-156" y="1110" as="sourcePoint" />
            <mxPoint x="-156" y="1060" as="targetPoint" />
          </mxGeometry>
        </mxCell>
        <mxCell id="mw0KVpR6ZASn544iT4bN-131" value="" style="endArrow=none;html=1;rounded=0;" parent="1" edge="1">
          <mxGeometry width="50" height="50" relative="1" as="geometry">
            <mxPoint x="-146" y="1110" as="sourcePoint" />
            <mxPoint x="-146" y="1060" as="targetPoint" />
          </mxGeometry>
        </mxCell>
        <mxCell id="mw0KVpR6ZASn544iT4bN-132" value="Servicio de&lt;br&gt;comida" style="whiteSpace=wrap;html=1;align=center;" parent="1" vertex="1">
          <mxGeometry x="-400" y="1210" width="100" height="40" as="geometry" />
        </mxCell>
        <mxCell id="mw0KVpR6ZASn544iT4bN-133" value="Limpieza interna" style="whiteSpace=wrap;html=1;align=center;" parent="1" vertex="1">
          <mxGeometry x="-20" y="1210" width="100" height="40" as="geometry" />
        </mxCell>
        <mxCell id="mw0KVpR6ZASn544iT4bN-134" value="Personal de apoyo" style="whiteSpace=wrap;html=1;align=center;" parent="1" vertex="1">
          <mxGeometry x="-140" y="1210" width="100" height="40" as="geometry" />
        </mxCell>
        <mxCell id="mw0KVpR6ZASn544iT4bN-135" value="Recepcionista" style="whiteSpace=wrap;html=1;align=center;" parent="1" vertex="1">
          <mxGeometry x="-280" y="1210" width="100" height="40" as="geometry" />
        </mxCell>
        <mxCell id="mw0KVpR6ZASn544iT4bN-138" value="&lt;b&gt;&lt;font style=&quot;font-size: 19px;&quot;&gt;d&lt;/font&gt;&lt;/b&gt;" style="text;strokeColor=none;fillColor=none;align=left;verticalAlign=middle;spacingLeft=4;spacingRight=4;overflow=hidden;points=[[0,0.5],[1,0.5]];portConstraint=eastwest;rotatable=0;whiteSpace=wrap;html=1;" parent="1" vertex="1">
          <mxGeometry x="-160" y="1120" width="20" height="30" as="geometry" />
        </mxCell>
        <mxCell id="mw0KVpR6ZASn544iT4bN-139" value="" style="endArrow=none;html=1;rounded=0;exitX=0.5;exitY=0;exitDx=0;exitDy=0;entryX=0.177;entryY=0.905;entryDx=0;entryDy=0;entryPerimeter=0;" parent="1" source="mw0KVpR6ZASn544iT4bN-132" target="mw0KVpR6ZASn544iT4bN-129" edge="1">
          <mxGeometry width="50" height="50" relative="1" as="geometry">
            <mxPoint x="-330" y="1170" as="sourcePoint" />
            <mxPoint x="-280" y="1120" as="targetPoint" />
          </mxGeometry>
        </mxCell>
        <mxCell id="mw0KVpR6ZASn544iT4bN-140" value="" style="endArrow=none;html=1;rounded=0;exitX=0.5;exitY=0;exitDx=0;exitDy=0;entryX=0.19;entryY=0.095;entryDx=0;entryDy=0;entryPerimeter=0;" parent="1" source="mw0KVpR6ZASn544iT4bN-133" target="mw0KVpR6ZASn544iT4bN-129" edge="1">
          <mxGeometry width="50" height="50" relative="1" as="geometry">
            <mxPoint y="1170" as="sourcePoint" />
            <mxPoint x="50" y="1120" as="targetPoint" />
          </mxGeometry>
        </mxCell>
        <mxCell id="mw0KVpR6ZASn544iT4bN-141" value="" style="endArrow=none;html=1;rounded=0;entryX=0.5;entryY=1;entryDx=0;entryDy=0;" parent="1" target="mw0KVpR6ZASn544iT4bN-129" edge="1">
          <mxGeometry width="50" height="50" relative="1" as="geometry">
            <mxPoint x="-230" y="1210" as="sourcePoint" />
            <mxPoint x="-180" y="1160" as="targetPoint" />
          </mxGeometry>
        </mxCell>
        <mxCell id="mw0KVpR6ZASn544iT4bN-142" value="" style="endArrow=none;html=1;rounded=0;exitX=0.5;exitY=0;exitDx=0;exitDy=0;entryX=0.5;entryY=0;entryDx=0;entryDy=0;" parent="1" source="mw0KVpR6ZASn544iT4bN-134" target="mw0KVpR6ZASn544iT4bN-129" edge="1">
          <mxGeometry width="50" height="50" relative="1" as="geometry">
            <mxPoint x="-105" y="1200" as="sourcePoint" />
            <mxPoint x="-55" y="1150" as="targetPoint" />
          </mxGeometry>
        </mxCell>
        <mxCell id="mw0KVpR6ZASn544iT4bN-144" value="&lt;u&gt;RFC&lt;/u&gt;" style="ellipse;whiteSpace=wrap;html=1;align=center;" parent="1" vertex="1">
          <mxGeometry x="-55" y="1020" width="100" height="40" as="geometry" />
        </mxCell>
        <mxCell id="mw0KVpR6ZASn544iT4bN-171" value="Fecha contratación" style="ellipse;whiteSpace=wrap;html=1;align=center;" parent="1" vertex="1">
          <mxGeometry x="-332.5" y="1075" width="120" height="50" as="geometry" />
        </mxCell>
        <mxCell id="mw0KVpR6ZASn544iT4bN-173" value="Horario" style="ellipse;whiteSpace=wrap;html=1;align=center;" parent="1" vertex="1">
          <mxGeometry x="-50" y="1080" width="100" height="40" as="geometry" />
        </mxCell>
        <mxCell id="mw0KVpR6ZASn544iT4bN-174" value="Número de habitaciones a cargo" style="ellipse;whiteSpace=wrap;html=1;align=center;" parent="1" vertex="1">
          <mxGeometry x="-155" y="1290" width="130" height="60" as="geometry" />
        </mxCell>
        <mxCell id="mw0KVpR6ZASn544iT4bN-175" value="" style="endArrow=none;html=1;rounded=0;exitX=0.5;exitY=0;exitDx=0;exitDy=0;entryX=0.5;entryY=1;entryDx=0;entryDy=0;" parent="1" source="mw0KVpR6ZASn544iT4bN-174" target="mw0KVpR6ZASn544iT4bN-134" edge="1">
          <mxGeometry width="50" height="50" relative="1" as="geometry">
            <mxPoint x="-90" y="1265" as="sourcePoint" />
            <mxPoint x="-40" y="1215" as="targetPoint" />
          </mxGeometry>
        </mxCell>
        <mxCell id="mw0KVpR6ZASn544iT4bN-177" value="Persona" style="whiteSpace=wrap;html=1;align=center;" parent="1" vertex="1">
          <mxGeometry x="300" y="745" width="100" height="40" as="geometry" />
        </mxCell>
        <mxCell id="mw0KVpR6ZASn544iT4bN-181" value="Dirección" style="ellipse;whiteSpace=wrap;html=1;align=center;" parent="1" vertex="1">
          <mxGeometry x="-470" y="995" width="100" height="40" as="geometry" />
        </mxCell>
        <mxCell id="mw0KVpR6ZASn544iT4bN-182" value="Numero exterior" style="ellipse;whiteSpace=wrap;html=1;align=center;" parent="1" vertex="1">
          <mxGeometry x="-585" y="915" width="100" height="40" as="geometry" />
        </mxCell>
        <mxCell id="mw0KVpR6ZASn544iT4bN-183" value="Calle" style="ellipse;whiteSpace=wrap;html=1;align=center;" parent="1" vertex="1">
          <mxGeometry x="-355" y="915" width="100" height="40" as="geometry" />
        </mxCell>
        <mxCell id="mw0KVpR6ZASn544iT4bN-184" value="Numero interior" style="ellipse;whiteSpace=wrap;html=1;align=center;" parent="1" vertex="1">
          <mxGeometry x="-600" y="975" width="100" height="40" as="geometry" />
        </mxCell>
        <mxCell id="mw0KVpR6ZASn544iT4bN-185" value="Colonia" style="ellipse;whiteSpace=wrap;html=1;align=center;" parent="1" vertex="1">
          <mxGeometry x="-480" y="895" width="100" height="40" as="geometry" />
        </mxCell>
        <mxCell id="mw0KVpR6ZASn544iT4bN-186" value="Estado" style="ellipse;whiteSpace=wrap;html=1;align=center;" parent="1" vertex="1">
          <mxGeometry x="-355" y="975" width="100" height="40" as="geometry" />
        </mxCell>
        <mxCell id="mw0KVpR6ZASn544iT4bN-187" value="" style="endArrow=none;html=1;rounded=0;exitX=0.5;exitY=0;exitDx=0;exitDy=0;entryX=0.5;entryY=1;entryDx=0;entryDy=0;" parent="1" source="mw0KVpR6ZASn544iT4bN-181" target="mw0KVpR6ZASn544iT4bN-185" edge="1">
          <mxGeometry width="50" height="50" relative="1" as="geometry">
            <mxPoint x="-410" y="935" as="sourcePoint" />
            <mxPoint x="-430" y="905" as="targetPoint" />
          </mxGeometry>
        </mxCell>
        <mxCell id="mw0KVpR6ZASn544iT4bN-188" value="" style="endArrow=none;html=1;rounded=0;exitX=0;exitY=0.5;exitDx=0;exitDy=0;entryX=0.5;entryY=1;entryDx=0;entryDy=0;" parent="1" source="mw0KVpR6ZASn544iT4bN-181" target="mw0KVpR6ZASn544iT4bN-184" edge="1">
          <mxGeometry width="50" height="50" relative="1" as="geometry">
            <mxPoint x="-510" y="1020" as="sourcePoint" />
            <mxPoint x="-460" y="970" as="targetPoint" />
          </mxGeometry>
        </mxCell>
        <mxCell id="mw0KVpR6ZASn544iT4bN-189" value="" style="endArrow=none;html=1;rounded=0;exitX=1;exitY=0.5;exitDx=0;exitDy=0;entryX=0.5;entryY=1;entryDx=0;entryDy=0;" parent="1" source="mw0KVpR6ZASn544iT4bN-181" target="mw0KVpR6ZASn544iT4bN-186" edge="1">
          <mxGeometry width="50" height="50" relative="1" as="geometry">
            <mxPoint x="-365" y="1035" as="sourcePoint" />
            <mxPoint x="-355" y="1035" as="targetPoint" />
          </mxGeometry>
        </mxCell>
        <mxCell id="mw0KVpR6ZASn544iT4bN-190" value="" style="endArrow=none;html=1;rounded=0;exitX=0.322;exitY=0.015;exitDx=0;exitDy=0;exitPerimeter=0;entryX=1;entryY=1;entryDx=0;entryDy=0;" parent="1" source="mw0KVpR6ZASn544iT4bN-181" target="mw0KVpR6ZASn544iT4bN-182" edge="1">
          <mxGeometry width="50" height="50" relative="1" as="geometry">
            <mxPoint x="-485" y="985" as="sourcePoint" />
            <mxPoint x="-425" y="925" as="targetPoint" />
          </mxGeometry>
        </mxCell>
        <mxCell id="mw0KVpR6ZASn544iT4bN-191" value="" style="endArrow=none;html=1;rounded=0;entryX=0;entryY=1;entryDx=0;entryDy=0;exitX=0.754;exitY=0.055;exitDx=0;exitDy=0;exitPerimeter=0;" parent="1" source="mw0KVpR6ZASn544iT4bN-181" target="mw0KVpR6ZASn544iT4bN-183" edge="1">
          <mxGeometry width="50" height="50" relative="1" as="geometry">
            <mxPoint x="-405" y="1015" as="sourcePoint" />
            <mxPoint x="-355" y="965" as="targetPoint" />
          </mxGeometry>
        </mxCell>
        <mxCell id="mw0KVpR6ZASn544iT4bN-192" value="" style="endArrow=none;html=1;rounded=0;entryX=0;entryY=1;entryDx=0;entryDy=0;exitX=1;exitY=0;exitDx=0;exitDy=0;" parent="1" source="mw0KVpR6ZASn544iT4bN-171" target="mw0KVpR6ZASn544iT4bN-128" edge="1">
          <mxGeometry width="50" height="50" relative="1" as="geometry">
            <mxPoint x="-380" y="1090" as="sourcePoint" />
            <mxPoint x="-330" y="1040" as="targetPoint" />
          </mxGeometry>
        </mxCell>
        <mxCell id="mw0KVpR6ZASn544iT4bN-193" value="" style="endArrow=none;html=1;rounded=0;exitX=1;exitY=1;exitDx=0;exitDy=0;entryX=0;entryY=0.5;entryDx=0;entryDy=0;" parent="1" source="mw0KVpR6ZASn544iT4bN-128" target="mw0KVpR6ZASn544iT4bN-173" edge="1">
          <mxGeometry width="50" height="50" relative="1" as="geometry">
            <mxPoint x="-80" y="1080" as="sourcePoint" />
            <mxPoint x="-30" y="1030" as="targetPoint" />
          </mxGeometry>
        </mxCell>
        <mxCell id="mw0KVpR6ZASn544iT4bN-194" value="" style="endArrow=none;html=1;rounded=0;exitX=1;exitY=0.5;exitDx=0;exitDy=0;entryX=0;entryY=0.5;entryDx=0;entryDy=0;" parent="1" source="mw0KVpR6ZASn544iT4bN-128" target="mw0KVpR6ZASn544iT4bN-144" edge="1">
          <mxGeometry width="50" height="50" relative="1" as="geometry">
            <mxPoint x="-80" y="1030" as="sourcePoint" />
            <mxPoint x="-30" y="980" as="targetPoint" />
          </mxGeometry>
        </mxCell>
        <mxCell id="mw0KVpR6ZASn544iT4bN-195" value="" style="endArrow=none;html=1;rounded=0;entryX=0;entryY=0.5;entryDx=0;entryDy=0;exitX=1;exitY=1;exitDx=0;exitDy=0;" parent="1" source="mw0KVpR6ZASn544iT4bN-181" target="mw0KVpR6ZASn544iT4bN-128" edge="1">
          <mxGeometry width="50" height="50" relative="1" as="geometry">
            <mxPoint x="-265" y="1100" as="sourcePoint" />
            <mxPoint x="-215" y="1050" as="targetPoint" />
          </mxGeometry>
        </mxCell>
        <mxCell id="mw0KVpR6ZASn544iT4bN-208" value="Nombre Completo" style="ellipse;whiteSpace=wrap;html=1;align=center;" parent="1" vertex="1">
          <mxGeometry x="130" y="745" width="110" height="40" as="geometry" />
        </mxCell>
        <mxCell id="mw0KVpR6ZASn544iT4bN-209" value="Apellido paterno" style="ellipse;whiteSpace=wrap;html=1;align=center;" parent="1" vertex="1">
          <mxGeometry x="200" y="805" width="100" height="40" as="geometry" />
        </mxCell>
        <mxCell id="mw0KVpR6ZASn544iT4bN-210" value="Apellido materno" style="ellipse;whiteSpace=wrap;html=1;align=center;" parent="1" vertex="1">
          <mxGeometry x="-20" y="760" width="100" height="40" as="geometry" />
        </mxCell>
        <mxCell id="mw0KVpR6ZASn544iT4bN-211" value="Nombre" style="ellipse;whiteSpace=wrap;html=1;align=center;" parent="1" vertex="1">
          <mxGeometry x="80" y="800" width="100" height="35" as="geometry" />
        </mxCell>
        <mxCell id="mw0KVpR6ZASn544iT4bN-213" value="" style="endArrow=none;html=1;rounded=0;exitX=1;exitY=0.5;exitDx=0;exitDy=0;entryX=0;entryY=1;entryDx=0;entryDy=0;" parent="1" source="mw0KVpR6ZASn544iT4bN-210" target="mw0KVpR6ZASn544iT4bN-208" edge="1">
          <mxGeometry width="50" height="50" relative="1" as="geometry">
            <mxPoint x="90" y="790" as="sourcePoint" />
            <mxPoint x="140" y="740" as="targetPoint" />
          </mxGeometry>
        </mxCell>
        <mxCell id="mw0KVpR6ZASn544iT4bN-214" value="" style="endArrow=none;html=1;rounded=0;entryX=0.5;entryY=1;entryDx=0;entryDy=0;exitX=0.5;exitY=0;exitDx=0;exitDy=0;" parent="1" source="mw0KVpR6ZASn544iT4bN-211" target="mw0KVpR6ZASn544iT4bN-208" edge="1">
          <mxGeometry width="50" height="50" relative="1" as="geometry">
            <mxPoint x="130" y="865" as="sourcePoint" />
            <mxPoint x="180" y="815" as="targetPoint" />
          </mxGeometry>
        </mxCell>
        <mxCell id="mw0KVpR6ZASn544iT4bN-215" value="" style="endArrow=none;html=1;rounded=0;exitX=0.5;exitY=0;exitDx=0;exitDy=0;entryX=1;entryY=1;entryDx=0;entryDy=0;" parent="1" source="mw0KVpR6ZASn544iT4bN-209" target="mw0KVpR6ZASn544iT4bN-208" edge="1">
          <mxGeometry width="50" height="50" relative="1" as="geometry">
            <mxPoint x="235" y="805" as="sourcePoint" />
            <mxPoint x="285" y="755" as="targetPoint" />
          </mxGeometry>
        </mxCell>
        <mxCell id="mw0KVpR6ZASn544iT4bN-217" value="" style="endArrow=none;html=1;rounded=0;exitX=1;exitY=0.5;exitDx=0;exitDy=0;entryX=0;entryY=0.5;entryDx=0;entryDy=0;" parent="1" source="mw0KVpR6ZASn544iT4bN-208" target="mw0KVpR6ZASn544iT4bN-177" edge="1">
          <mxGeometry width="50" height="50" relative="1" as="geometry">
            <mxPoint x="260" y="760" as="sourcePoint" />
            <mxPoint x="310" y="710" as="targetPoint" />
          </mxGeometry>
        </mxCell>
        <mxCell id="mw0KVpR6ZASn544iT4bN-218" value="Teléfono" style="ellipse;shape=doubleEllipse;margin=3;whiteSpace=wrap;html=1;align=center;" parent="1" vertex="1">
          <mxGeometry x="170" y="690" width="100" height="40" as="geometry" />
        </mxCell>
        <mxCell id="mw0KVpR6ZASn544iT4bN-219" value="" style="endArrow=none;html=1;rounded=0;exitX=0;exitY=0;exitDx=0;exitDy=0;entryX=1;entryY=1;entryDx=0;entryDy=0;" parent="1" source="mw0KVpR6ZASn544iT4bN-177" target="mw0KVpR6ZASn544iT4bN-218" edge="1">
          <mxGeometry width="50" height="50" relative="1" as="geometry">
            <mxPoint x="300" y="730" as="sourcePoint" />
            <mxPoint x="350" y="680" as="targetPoint" />
          </mxGeometry>
        </mxCell>
        <mxCell id="mw0KVpR6ZASn544iT4bN-220" value="" style="endArrow=none;html=1;rounded=0;exitX=0.5;exitY=0;exitDx=0;exitDy=0;entryX=0.5;entryY=1;entryDx=0;entryDy=0;" parent="1" source="mw0KVpR6ZASn544iT4bN-177" target="mw0KVpR6ZASn544iT4bN-96" edge="1">
          <mxGeometry width="50" height="50" relative="1" as="geometry">
            <mxPoint x="300" y="770" as="sourcePoint" />
            <mxPoint x="350" y="720" as="targetPoint" />
          </mxGeometry>
        </mxCell>
        <mxCell id="mw0KVpR6ZASn544iT4bN-222" value="Correo electrónico" style="ellipse;shape=doubleEllipse;margin=3;whiteSpace=wrap;html=1;align=center;" parent="1" vertex="1">
          <mxGeometry x="420" y="690" width="100" height="40" as="geometry" />
        </mxCell>
        <mxCell id="mw0KVpR6ZASn544iT4bN-223" value="" style="endArrow=none;html=1;rounded=0;exitX=1;exitY=0;exitDx=0;exitDy=0;entryX=0;entryY=1;entryDx=0;entryDy=0;" parent="1" source="mw0KVpR6ZASn544iT4bN-177" target="mw0KVpR6ZASn544iT4bN-222" edge="1">
          <mxGeometry width="50" height="50" relative="1" as="geometry">
            <mxPoint x="430" y="780" as="sourcePoint" />
            <mxPoint x="480" y="730" as="targetPoint" />
          </mxGeometry>
        </mxCell>
        <mxCell id="mw0KVpR6ZASn544iT4bN-224" value="" style="endArrow=none;html=1;rounded=0;exitX=1;exitY=0.5;exitDx=0;exitDy=0;entryX=0;entryY=0.5;entryDx=0;entryDy=0;" parent="1" source="mw0KVpR6ZASn544iT4bN-177" target="mw0KVpR6ZASn544iT4bN-101" edge="1">
          <mxGeometry width="50" height="50" relative="1" as="geometry">
            <mxPoint x="400" y="770" as="sourcePoint" />
            <mxPoint x="450" y="720" as="targetPoint" />
          </mxGeometry>
        </mxCell>
        <mxCell id="mw0KVpR6ZASn544iT4bN-226" value="&lt;font style=&quot;font-size: 15px;&quot;&gt;&lt;b&gt;d&lt;/b&gt;&lt;/font&gt;" style="triangle;whiteSpace=wrap;html=1;rotation=90;" parent="1" vertex="1">
          <mxGeometry x="320" y="845" width="60" height="80" as="geometry" />
        </mxCell>
        <mxCell id="mw0KVpR6ZASn544iT4bN-227" value="" style="endArrow=none;html=1;rounded=0;exitX=0.5;exitY=0;exitDx=0;exitDy=0;entryX=0.5;entryY=1;entryDx=0;entryDy=0;" parent="1" source="mw0KVpR6ZASn544iT4bN-128" target="mw0KVpR6ZASn544iT4bN-226" edge="1">
          <mxGeometry width="50" height="50" relative="1" as="geometry">
            <mxPoint x="-55" y="1005" as="sourcePoint" />
            <mxPoint x="90" y="945" as="targetPoint" />
          </mxGeometry>
        </mxCell>
        <mxCell id="mw0KVpR6ZASn544iT4bN-228" value="" style="endArrow=none;html=1;rounded=0;exitX=0.5;exitY=0;exitDx=0;exitDy=0;entryX=0;entryY=0;entryDx=0;entryDy=0;" parent="1" source="mw0KVpR6ZASn544iT4bN-226" target="mw0KVpR6ZASn544iT4bN-81" edge="1">
          <mxGeometry width="50" height="50" relative="1" as="geometry">
            <mxPoint x="452.5" y="945" as="sourcePoint" />
            <mxPoint x="502.5" y="895" as="targetPoint" />
          </mxGeometry>
        </mxCell>
        <mxCell id="mw0KVpR6ZASn544iT4bN-229" value="" style="endArrow=none;html=1;rounded=0;entryX=0.5;entryY=1;entryDx=0;entryDy=0;exitX=0;exitY=0.5;exitDx=0;exitDy=0;shape=link;" parent="1" source="mw0KVpR6ZASn544iT4bN-226" target="mw0KVpR6ZASn544iT4bN-177" edge="1">
          <mxGeometry width="50" height="50" relative="1" as="geometry">
            <mxPoint x="310" y="860" as="sourcePoint" />
            <mxPoint x="360" y="810" as="targetPoint" />
          </mxGeometry>
        </mxCell>
        <mxCell id="mw0KVpR6ZASn544iT4bN-230" value="" style="endArrow=none;html=1;rounded=0;entryX=0;entryY=0.5;entryDx=0;entryDy=0;exitX=1;exitY=0.5;exitDx=0;exitDy=0;" parent="1" source="mw0KVpR6ZASn544iT4bN-94" target="mw0KVpR6ZASn544iT4bN-81" edge="1">
          <mxGeometry width="50" height="50" relative="1" as="geometry">
            <mxPoint x="450" y="1110" as="sourcePoint" />
            <mxPoint x="500" y="1060" as="targetPoint" />
          </mxGeometry>
        </mxCell>
        <mxCell id="mw0KVpR6ZASn544iT4bN-231" value="" style="endArrow=none;html=1;rounded=0;entryX=0.25;entryY=1;entryDx=0;entryDy=0;exitX=0.436;exitY=-0.015;exitDx=0;exitDy=0;exitPerimeter=0;" parent="1" source="mw0KVpR6ZASn544iT4bN-109" target="mw0KVpR6ZASn544iT4bN-108" edge="1">
          <mxGeometry width="50" height="50" relative="1" as="geometry">
            <mxPoint x="825" y="1072.5" as="sourcePoint" />
            <mxPoint x="875" y="1022.5" as="targetPoint" />
          </mxGeometry>
        </mxCell>
        <mxCell id="mw0KVpR6ZASn544iT4bN-232" value="" style="endArrow=none;html=1;rounded=0;exitX=0.5;exitY=0;exitDx=0;exitDy=0;entryX=0.75;entryY=1;entryDx=0;entryDy=0;" parent="1" source="mw0KVpR6ZASn544iT4bN-110" target="mw0KVpR6ZASn544iT4bN-108" edge="1">
          <mxGeometry width="50" height="50" relative="1" as="geometry">
            <mxPoint x="920" y="1057.5" as="sourcePoint" />
            <mxPoint x="970" y="1007.5" as="targetPoint" />
          </mxGeometry>
        </mxCell>
        <mxCell id="mw0KVpR6ZASn544iT4bN-233" value="" style="endArrow=none;html=1;rounded=0;entryX=0.5;entryY=1;entryDx=0;entryDy=0;exitX=0.5;exitY=0;exitDx=0;exitDy=0;" parent="1" source="mw0KVpR6ZASn544iT4bN-113" target="mw0KVpR6ZASn544iT4bN-118" edge="1">
          <mxGeometry width="50" height="50" relative="1" as="geometry">
            <mxPoint x="640" y="1020" as="sourcePoint" />
            <mxPoint x="690" y="970" as="targetPoint" />
          </mxGeometry>
        </mxCell>
        <mxCell id="mw0KVpR6ZASn544iT4bN-234" value="" style="endArrow=classic;html=1;rounded=0;entryX=1;entryY=0.5;entryDx=0;entryDy=0;exitX=0;exitY=0.5;exitDx=0;exitDy=0;" parent="1" source="mw0KVpR6ZASn544iT4bN-113" target="mw0KVpR6ZASn544iT4bN-81" edge="1">
          <mxGeometry width="50" height="50" relative="1" as="geometry">
            <mxPoint x="600" y="1067.5" as="sourcePoint" />
            <mxPoint x="650" y="1017.5" as="targetPoint" />
          </mxGeometry>
        </mxCell>
        <mxCell id="mw0KVpR6ZASn544iT4bN-235" value="" style="endArrow=classic;html=1;rounded=0;exitX=1;exitY=0.5;exitDx=0;exitDy=0;entryX=0;entryY=0.5;entryDx=0;entryDy=0;" parent="1" source="mw0KVpR6ZASn544iT4bN-113" target="mw0KVpR6ZASn544iT4bN-108" edge="1">
          <mxGeometry width="50" height="50" relative="1" as="geometry">
            <mxPoint x="820" y="985" as="sourcePoint" />
            <mxPoint x="870" y="935" as="targetPoint" />
          </mxGeometry>
        </mxCell>
        <mxCell id="mw0KVpR6ZASn544iT4bN-236" value="" style="endArrow=none;html=1;rounded=0;exitX=0.5;exitY=0;exitDx=0;exitDy=0;entryX=0.25;entryY=1;entryDx=0;entryDy=0;" parent="1" source="mw0KVpR6ZASn544iT4bN-24" target="mw0KVpR6ZASn544iT4bN-1" edge="1">
          <mxGeometry width="50" height="50" relative="1" as="geometry">
            <mxPoint x="-80" y="490" as="sourcePoint" />
            <mxPoint x="-30" y="440" as="targetPoint" />
          </mxGeometry>
        </mxCell>
        <mxCell id="mw0KVpR6ZASn544iT4bN-244" value="" style="endArrow=none;html=1;rounded=0;exitX=1;exitY=0.25;exitDx=0;exitDy=0;entryX=0;entryY=0.5;entryDx=0;entryDy=0;" parent="1" source="mw0KVpR6ZASn544iT4bN-1" target="Jq6ILPM_gJ9PfmqBb2df-134" edge="1">
          <mxGeometry width="50" height="50" relative="1" as="geometry">
            <mxPoint x="60" y="470" as="sourcePoint" />
            <mxPoint x="140" y="430" as="targetPoint" />
          </mxGeometry>
        </mxCell>
        <mxCell id="mw0KVpR6ZASn544iT4bN-246" value="" style="endArrow=none;html=1;rounded=0;entryX=0;entryY=0.5;entryDx=0;entryDy=0;exitX=1;exitY=0.5;exitDx=0;exitDy=0;" parent="1" source="mw0KVpR6ZASn544iT4bN-74" target="mw0KVpR6ZASn544iT4bN-49" edge="1">
          <mxGeometry width="50" height="50" relative="1" as="geometry">
            <mxPoint x="955" y="280" as="sourcePoint" />
            <mxPoint x="1005" y="230" as="targetPoint" />
          </mxGeometry>
        </mxCell>
        <mxCell id="mw0KVpR6ZASn544iT4bN-247" value="Salon" style="whiteSpace=wrap;html=1;align=center;" parent="1" vertex="1">
          <mxGeometry x="642" y="1454" width="100" height="40" as="geometry" />
        </mxCell>
        <mxCell id="mw0KVpR6ZASn544iT4bN-248" value="Nombre salón" style="ellipse;whiteSpace=wrap;html=1;align=center;" parent="1" vertex="1">
          <mxGeometry x="787" y="1434" width="100" height="40" as="geometry" />
        </mxCell>
        <mxCell id="mw0KVpR6ZASn544iT4bN-249" value="Dirección" style="ellipse;whiteSpace=wrap;html=1;align=center;" parent="1" vertex="1">
          <mxGeometry x="802" y="1384" width="100" height="40" as="geometry" />
        </mxCell>
        <mxCell id="mw0KVpR6ZASn544iT4bN-250" value="Número exterior" style="ellipse;whiteSpace=wrap;html=1;align=center;" parent="1" vertex="1">
          <mxGeometry x="687" y="1304" width="100" height="40" as="geometry" />
        </mxCell>
        <mxCell id="mw0KVpR6ZASn544iT4bN-251" value="Calle" style="ellipse;whiteSpace=wrap;html=1;align=center;" parent="1" vertex="1">
          <mxGeometry x="917" y="1304" width="100" height="40" as="geometry" />
        </mxCell>
        <mxCell id="mw0KVpR6ZASn544iT4bN-252" value="Número interior" style="ellipse;whiteSpace=wrap;html=1;align=center;" parent="1" vertex="1">
          <mxGeometry x="672" y="1364" width="100" height="40" as="geometry" />
        </mxCell>
        <mxCell id="mw0KVpR6ZASn544iT4bN-253" value="Colonia" style="ellipse;whiteSpace=wrap;html=1;align=center;" parent="1" vertex="1">
          <mxGeometry x="792" y="1284" width="100" height="40" as="geometry" />
        </mxCell>
        <mxCell id="mw0KVpR6ZASn544iT4bN-254" value="Estado" style="ellipse;whiteSpace=wrap;html=1;align=center;" parent="1" vertex="1">
          <mxGeometry x="917" y="1364" width="100" height="40" as="geometry" />
        </mxCell>
        <mxCell id="mw0KVpR6ZASn544iT4bN-255" value="" style="endArrow=none;html=1;rounded=0;exitX=0.5;exitY=0;exitDx=0;exitDy=0;entryX=0.5;entryY=1;entryDx=0;entryDy=0;" parent="1" source="mw0KVpR6ZASn544iT4bN-249" target="mw0KVpR6ZASn544iT4bN-253" edge="1">
          <mxGeometry width="50" height="50" relative="1" as="geometry">
            <mxPoint x="862" y="1324" as="sourcePoint" />
            <mxPoint x="842" y="1294" as="targetPoint" />
          </mxGeometry>
        </mxCell>
        <mxCell id="mw0KVpR6ZASn544iT4bN-256" value="" style="endArrow=none;html=1;rounded=0;exitX=0;exitY=0.5;exitDx=0;exitDy=0;entryX=0.5;entryY=1;entryDx=0;entryDy=0;" parent="1" source="mw0KVpR6ZASn544iT4bN-249" target="mw0KVpR6ZASn544iT4bN-252" edge="1">
          <mxGeometry width="50" height="50" relative="1" as="geometry">
            <mxPoint x="762" y="1409" as="sourcePoint" />
            <mxPoint x="812" y="1359" as="targetPoint" />
          </mxGeometry>
        </mxCell>
        <mxCell id="mw0KVpR6ZASn544iT4bN-257" value="" style="endArrow=none;html=1;rounded=0;exitX=1;exitY=0.5;exitDx=0;exitDy=0;entryX=0.5;entryY=1;entryDx=0;entryDy=0;" parent="1" source="mw0KVpR6ZASn544iT4bN-249" target="mw0KVpR6ZASn544iT4bN-254" edge="1">
          <mxGeometry width="50" height="50" relative="1" as="geometry">
            <mxPoint x="907" y="1424" as="sourcePoint" />
            <mxPoint x="917" y="1424" as="targetPoint" />
          </mxGeometry>
        </mxCell>
        <mxCell id="mw0KVpR6ZASn544iT4bN-258" value="" style="endArrow=none;html=1;rounded=0;exitX=0.322;exitY=0.015;exitDx=0;exitDy=0;exitPerimeter=0;entryX=1;entryY=1;entryDx=0;entryDy=0;" parent="1" source="mw0KVpR6ZASn544iT4bN-249" target="mw0KVpR6ZASn544iT4bN-250" edge="1">
          <mxGeometry width="50" height="50" relative="1" as="geometry">
            <mxPoint x="787" y="1374" as="sourcePoint" />
            <mxPoint x="847" y="1314" as="targetPoint" />
          </mxGeometry>
        </mxCell>
        <mxCell id="mw0KVpR6ZASn544iT4bN-259" value="" style="endArrow=none;html=1;rounded=0;entryX=0;entryY=1;entryDx=0;entryDy=0;exitX=0.754;exitY=0.055;exitDx=0;exitDy=0;exitPerimeter=0;" parent="1" source="mw0KVpR6ZASn544iT4bN-249" target="mw0KVpR6ZASn544iT4bN-251" edge="1">
          <mxGeometry width="50" height="50" relative="1" as="geometry">
            <mxPoint x="867" y="1404" as="sourcePoint" />
            <mxPoint x="917" y="1354" as="targetPoint" />
          </mxGeometry>
        </mxCell>
        <mxCell id="mw0KVpR6ZASn544iT4bN-260" value="Capacidad" style="ellipse;whiteSpace=wrap;html=1;align=center;" parent="1" vertex="1">
          <mxGeometry x="762" y="1514" width="100" height="40" as="geometry" />
        </mxCell>
        <mxCell id="mw0KVpR6ZASn544iT4bN-261" value="Horario de atención" style="ellipse;whiteSpace=wrap;html=1;align=center;" parent="1" vertex="1">
          <mxGeometry x="617" y="1534" width="100" height="40" as="geometry" />
        </mxCell>
        <mxCell id="mw0KVpR6ZASn544iT4bN-262" value="" style="endArrow=none;html=1;rounded=0;exitX=1;exitY=0.5;exitDx=0;exitDy=0;entryX=0;entryY=0.5;entryDx=0;entryDy=0;" parent="1" source="mw0KVpR6ZASn544iT4bN-247" target="mw0KVpR6ZASn544iT4bN-248" edge="1">
          <mxGeometry width="50" height="50" relative="1" as="geometry">
            <mxPoint x="752" y="1474" as="sourcePoint" />
            <mxPoint x="802" y="1424" as="targetPoint" />
          </mxGeometry>
        </mxCell>
        <mxCell id="mw0KVpR6ZASn544iT4bN-263" value="" style="endArrow=none;html=1;rounded=0;entryX=0;entryY=0.5;entryDx=0;entryDy=0;exitX=0.75;exitY=1;exitDx=0;exitDy=0;" parent="1" source="mw0KVpR6ZASn544iT4bN-247" target="mw0KVpR6ZASn544iT4bN-260" edge="1">
          <mxGeometry width="50" height="50" relative="1" as="geometry">
            <mxPoint x="687" y="1544" as="sourcePoint" />
            <mxPoint x="737" y="1494" as="targetPoint" />
          </mxGeometry>
        </mxCell>
        <mxCell id="mw0KVpR6ZASn544iT4bN-264" value="" style="endArrow=none;html=1;rounded=0;exitX=0.5;exitY=0;exitDx=0;exitDy=0;entryX=0.25;entryY=1;entryDx=0;entryDy=0;" parent="1" source="mw0KVpR6ZASn544iT4bN-261" target="mw0KVpR6ZASn544iT4bN-247" edge="1">
          <mxGeometry width="50" height="50" relative="1" as="geometry">
            <mxPoint x="672" y="1544" as="sourcePoint" />
            <mxPoint x="722" y="1494" as="targetPoint" />
          </mxGeometry>
        </mxCell>
        <mxCell id="mw0KVpR6ZASn544iT4bN-265" value="" style="endArrow=none;html=1;rounded=0;exitX=0.5;exitY=0;exitDx=0;exitDy=0;entryX=0;entryY=1;entryDx=0;entryDy=0;" parent="1" source="mw0KVpR6ZASn544iT4bN-247" target="mw0KVpR6ZASn544iT4bN-249" edge="1">
          <mxGeometry width="50" height="50" relative="1" as="geometry">
            <mxPoint x="697" y="1429" as="sourcePoint" />
            <mxPoint x="747" y="1379" as="targetPoint" />
          </mxGeometry>
        </mxCell>
        <mxCell id="mw0KVpR6ZASn544iT4bN-268" value="Evento" style="whiteSpace=wrap;html=1;align=center;" parent="1" vertex="1">
          <mxGeometry x="337.5" y="1190" width="100" height="40" as="geometry" />
        </mxCell>
        <mxCell id="mw0KVpR6ZASn544iT4bN-269" value="Fecha evento" style="ellipse;whiteSpace=wrap;html=1;align=center;" parent="1" vertex="1">
          <mxGeometry x="275" y="992.5" width="100" height="40" as="geometry" />
        </mxCell>
        <mxCell id="mw0KVpR6ZASn544iT4bN-270" value="Hora de inicio" style="ellipse;whiteSpace=wrap;html=1;align=center;" parent="1" vertex="1">
          <mxGeometry x="205" y="1040" width="100" height="40" as="geometry" />
        </mxCell>
        <mxCell id="mw0KVpR6ZASn544iT4bN-271" value="Hora de termino" style="ellipse;whiteSpace=wrap;html=1;align=center;" parent="1" vertex="1">
          <mxGeometry x="475" y="1070" width="100" height="40" as="geometry" />
        </mxCell>
        <mxCell id="mw0KVpR6ZASn544iT4bN-272" value="Numero de asistentes" style="ellipse;whiteSpace=wrap;html=1;align=center;" parent="1" vertex="1">
          <mxGeometry x="475" y="1200" width="100" height="40" as="geometry" />
        </mxCell>
        <mxCell id="mw0KVpR6ZASn544iT4bN-273" value="" style="endArrow=none;html=1;rounded=0;entryX=1;entryY=0.5;entryDx=0;entryDy=0;exitX=0;exitY=0.5;exitDx=0;exitDy=0;" parent="1" source="mw0KVpR6ZASn544iT4bN-271" target="IOKUqTTzy_7AiuUjhLA8-7" edge="1">
          <mxGeometry width="50" height="50" relative="1" as="geometry">
            <mxPoint x="230" y="1200" as="sourcePoint" />
            <mxPoint x="280" y="1150" as="targetPoint" />
          </mxGeometry>
        </mxCell>
        <mxCell id="mw0KVpR6ZASn544iT4bN-274" value="" style="endArrow=none;html=1;rounded=0;entryX=0;entryY=0.5;entryDx=0;entryDy=0;exitX=1;exitY=0.5;exitDx=0;exitDy=0;" parent="1" source="mw0KVpR6ZASn544iT4bN-268" target="mw0KVpR6ZASn544iT4bN-272" edge="1">
          <mxGeometry width="50" height="50" relative="1" as="geometry">
            <mxPoint x="415" y="1250" as="sourcePoint" />
            <mxPoint x="465" y="1200" as="targetPoint" />
          </mxGeometry>
        </mxCell>
        <mxCell id="mw0KVpR6ZASn544iT4bN-275" value="" style="endArrow=none;html=1;rounded=0;entryX=0;entryY=0.5;entryDx=0;entryDy=0;exitX=1;exitY=1;exitDx=0;exitDy=0;" parent="1" source="mw0KVpR6ZASn544iT4bN-270" target="IOKUqTTzy_7AiuUjhLA8-7" edge="1">
          <mxGeometry width="50" height="50" relative="1" as="geometry">
            <mxPoint x="260" y="1290" as="sourcePoint" />
            <mxPoint x="310" y="1240" as="targetPoint" />
          </mxGeometry>
        </mxCell>
        <mxCell id="mw0KVpR6ZASn544iT4bN-276" value="" style="endArrow=none;html=1;rounded=0;exitX=0.634;exitY=1.032;exitDx=0;exitDy=0;entryX=0.317;entryY=0.14;entryDx=0;entryDy=0;entryPerimeter=0;exitPerimeter=0;" parent="1" source="mw0KVpR6ZASn544iT4bN-269" target="IOKUqTTzy_7AiuUjhLA8-7" edge="1">
          <mxGeometry width="50" height="50" relative="1" as="geometry">
            <mxPoint x="445" y="1250" as="sourcePoint" />
            <mxPoint x="495" y="1200" as="targetPoint" />
          </mxGeometry>
        </mxCell>
        <mxCell id="IOKUqTTzy_7AiuUjhLA8-7" value="RESERVAR" style="shape=rhombus;perimeter=rhombusPerimeter;whiteSpace=wrap;html=1;align=center;" parent="1" vertex="1">
          <mxGeometry x="327.5" y="1055" width="120" height="60" as="geometry" />
        </mxCell>
        <mxCell id="IOKUqTTzy_7AiuUjhLA8-8" value="" style="endArrow=none;html=1;rounded=0;entryX=0.5;entryY=1;entryDx=0;entryDy=0;exitX=0.5;exitY=0;exitDx=0;exitDy=0;shape=link;" parent="1" source="mw0KVpR6ZASn544iT4bN-268" target="IOKUqTTzy_7AiuUjhLA8-7" edge="1">
          <mxGeometry width="50" height="50" relative="1" as="geometry">
            <mxPoint x="385" y="1190" as="sourcePoint" />
            <mxPoint x="507.5" y="1135" as="targetPoint" />
          </mxGeometry>
        </mxCell>
        <mxCell id="IOKUqTTzy_7AiuUjhLA8-12" value="Nombre salón" style="ellipse;whiteSpace=wrap;html=1;align=center;" parent="1" vertex="1">
          <mxGeometry x="475" y="1150" width="100" height="40" as="geometry" />
        </mxCell>
        <mxCell id="IOKUqTTzy_7AiuUjhLA8-14" value="" style="endArrow=none;html=1;rounded=0;exitX=1;exitY=0;exitDx=0;exitDy=0;entryX=0;entryY=0.5;entryDx=0;entryDy=0;" parent="1" source="mw0KVpR6ZASn544iT4bN-268" target="IOKUqTTzy_7AiuUjhLA8-12" edge="1">
          <mxGeometry width="50" height="50" relative="1" as="geometry">
            <mxPoint x="450" y="1075" as="sourcePoint" />
            <mxPoint x="500" y="1025" as="targetPoint" />
          </mxGeometry>
        </mxCell>
        <mxCell id="IOKUqTTzy_7AiuUjhLA8-15" value="" style="endArrow=classic;html=1;rounded=0;" parent="1" edge="1">
          <mxGeometry width="50" height="50" relative="1" as="geometry">
            <mxPoint x="413" y="1070" as="sourcePoint" />
            <mxPoint x="510" y="1000" as="targetPoint" />
          </mxGeometry>
        </mxCell>
        <mxCell id="IOKUqTTzy_7AiuUjhLA8-16" value="VALIDAR" style="shape=rhombus;perimeter=rhombusPerimeter;whiteSpace=wrap;html=1;align=center;" parent="1" vertex="1">
          <mxGeometry x="327.5" y="1320" width="120" height="60" as="geometry" />
        </mxCell>
        <mxCell id="IOKUqTTzy_7AiuUjhLA8-19" value="" style="endArrow=classic;html=1;rounded=0;exitX=1;exitY=0.5;exitDx=0;exitDy=0;entryX=0;entryY=0.5;entryDx=0;entryDy=0;" parent="1" source="IOKUqTTzy_7AiuUjhLA8-16" target="mw0KVpR6ZASn544iT4bN-247" edge="1">
          <mxGeometry width="50" height="50" relative="1" as="geometry">
            <mxPoint x="620" y="1340" as="sourcePoint" />
            <mxPoint x="670" y="1290" as="targetPoint" />
          </mxGeometry>
        </mxCell>
        <mxCell id="Jq6ILPM_gJ9PfmqBb2df-1" value="&lt;span style=&quot;color: rgb(34, 34, 34); font-family: Arial, Helvetica, sans-serif; font-size: small; text-align: start; background-color: rgb(255, 255, 255);&quot;&gt;Petfriendly&lt;/span&gt;" style="ellipse;whiteSpace=wrap;html=1;align=center;" parent="1" vertex="1">
          <mxGeometry x="90" y="390" width="100" height="40" as="geometry" />
        </mxCell>
        <mxCell id="Jq6ILPM_gJ9PfmqBb2df-2" value="" style="endArrow=none;html=1;rounded=0;exitX=0;exitY=0.5;exitDx=0;exitDy=0;entryX=1;entryY=0.5;entryDx=0;entryDy=0;" parent="1" source="Jq6ILPM_gJ9PfmqBb2df-1" target="mw0KVpR6ZASn544iT4bN-1" edge="1">
          <mxGeometry width="50" height="50" relative="1" as="geometry">
            <mxPoint x="20" y="465" as="sourcePoint" />
            <mxPoint x="70" y="415" as="targetPoint" />
          </mxGeometry>
        </mxCell>
        <mxCell id="Jq6ILPM_gJ9PfmqBb2df-18" value="Forma de pago" style="whiteSpace=wrap;html=1;align=center;" parent="1" vertex="1">
          <mxGeometry x="855" y="707.5" width="100" height="40" as="geometry" />
        </mxCell>
        <mxCell id="Jq6ILPM_gJ9PfmqBb2df-19" value="Fecha de vencimiento" style="ellipse;whiteSpace=wrap;html=1;align=center;" parent="1" vertex="1">
          <mxGeometry x="1005" y="975" width="100" height="40" as="geometry" />
        </mxCell>
        <mxCell id="Jq6ILPM_gJ9PfmqBb2df-20" value="Número de tarjeta" style="ellipse;whiteSpace=wrap;html=1;align=center;" parent="1" vertex="1">
          <mxGeometry x="1020" y="925" width="105" height="45" as="geometry" />
        </mxCell>
        <mxCell id="Jq6ILPM_gJ9PfmqBb2df-24" value="" style="endArrow=none;html=1;rounded=0;exitX=0.5;exitY=1;exitDx=0;exitDy=0;" parent="1" source="H6TdwIV2a9m6XgnWYG58-9" edge="1">
          <mxGeometry width="50" height="50" relative="1" as="geometry">
            <mxPoint x="860" y="757.5" as="sourcePoint" />
            <mxPoint x="1020" y="980" as="targetPoint" />
          </mxGeometry>
        </mxCell>
        <mxCell id="Jq6ILPM_gJ9PfmqBb2df-25" value="" style="endArrow=none;html=1;rounded=0;exitX=0.594;exitY=0.953;exitDx=0;exitDy=0;entryX=0;entryY=0.5;entryDx=0;entryDy=0;exitPerimeter=0;" parent="1" source="H6TdwIV2a9m6XgnWYG58-9" target="Jq6ILPM_gJ9PfmqBb2df-20" edge="1">
          <mxGeometry width="50" height="50" relative="1" as="geometry">
            <mxPoint x="965" y="707.5" as="sourcePoint" />
            <mxPoint x="1015" y="657.5" as="targetPoint" />
          </mxGeometry>
        </mxCell>
        <mxCell id="Jq6ILPM_gJ9PfmqBb2df-26" value="Pago" style="whiteSpace=wrap;html=1;align=center;" parent="1" vertex="1">
          <mxGeometry x="1270" y="640" width="100" height="40" as="geometry" />
        </mxCell>
        <mxCell id="Jq6ILPM_gJ9PfmqBb2df-27" value="Número de noches" style="ellipse;whiteSpace=wrap;html=1;align=center;" parent="1" vertex="1">
          <mxGeometry x="1400" y="690" width="110" height="40" as="geometry" />
        </mxCell>
        <mxCell id="Jq6ILPM_gJ9PfmqBb2df-28" value="Número de huéspedes" style="ellipse;whiteSpace=wrap;html=1;align=center;" parent="1" vertex="1">
          <mxGeometry x="1270" y="570" width="100" height="50" as="geometry" />
        </mxCell>
        <mxCell id="Jq6ILPM_gJ9PfmqBb2df-30" value="Número de mascotas" style="ellipse;whiteSpace=wrap;html=1;align=center;" parent="1" vertex="1">
          <mxGeometry x="1397.5" y="620" width="100" height="50" as="geometry" />
        </mxCell>
        <mxCell id="Jq6ILPM_gJ9PfmqBb2df-35" value="" style="endArrow=none;html=1;rounded=0;entryX=0.5;entryY=1;entryDx=0;entryDy=0;exitX=0.5;exitY=0;exitDx=0;exitDy=0;" parent="1" source="Jq6ILPM_gJ9PfmqBb2df-26" target="Jq6ILPM_gJ9PfmqBb2df-28" edge="1">
          <mxGeometry width="50" height="50" relative="1" as="geometry">
            <mxPoint x="1235" y="650" as="sourcePoint" />
            <mxPoint x="1285" y="600" as="targetPoint" />
          </mxGeometry>
        </mxCell>
        <mxCell id="Jq6ILPM_gJ9PfmqBb2df-38" value="" style="endArrow=none;html=1;rounded=0;exitX=1;exitY=0.5;exitDx=0;exitDy=0;entryX=0;entryY=0.5;entryDx=0;entryDy=0;" parent="1" source="Jq6ILPM_gJ9PfmqBb2df-26" target="Jq6ILPM_gJ9PfmqBb2df-30" edge="1">
          <mxGeometry width="50" height="50" relative="1" as="geometry">
            <mxPoint x="1350" y="670" as="sourcePoint" />
            <mxPoint x="1400" y="620" as="targetPoint" />
            <Array as="points">
              <mxPoint x="1390" y="650" />
            </Array>
          </mxGeometry>
        </mxCell>
        <mxCell id="Jq6ILPM_gJ9PfmqBb2df-39" value="" style="endArrow=none;html=1;rounded=0;exitX=1;exitY=1;exitDx=0;exitDy=0;entryX=0;entryY=0.5;entryDx=0;entryDy=0;" parent="1" source="Jq6ILPM_gJ9PfmqBb2df-26" target="Jq6ILPM_gJ9PfmqBb2df-27" edge="1">
          <mxGeometry width="50" height="50" relative="1" as="geometry">
            <mxPoint x="1380" y="690" as="sourcePoint" />
            <mxPoint x="1430" y="640" as="targetPoint" />
          </mxGeometry>
        </mxCell>
        <mxCell id="Jq6ILPM_gJ9PfmqBb2df-41" value="Servicio extra" style="whiteSpace=wrap;html=1;align=center;" parent="1" vertex="1">
          <mxGeometry x="1270" y="920" width="100" height="40" as="geometry" />
        </mxCell>
        <mxCell id="Jq6ILPM_gJ9PfmqBb2df-43" value="Precio" style="ellipse;whiteSpace=wrap;html=1;align=center;" parent="1" vertex="1">
          <mxGeometry x="1390" y="920" width="100" height="40" as="geometry" />
        </mxCell>
        <mxCell id="Jq6ILPM_gJ9PfmqBb2df-44" value="Número de platos" style="ellipse;whiteSpace=wrap;html=1;align=center;" parent="1" vertex="1">
          <mxGeometry x="1240" y="985" width="120" height="55" as="geometry" />
        </mxCell>
        <mxCell id="Jq6ILPM_gJ9PfmqBb2df-47" value="ELEGIR" style="shape=rhombus;perimeter=rhombusPerimeter;whiteSpace=wrap;html=1;align=center;" parent="1" vertex="1">
          <mxGeometry x="645" y="700" width="120" height="60" as="geometry" />
        </mxCell>
        <mxCell id="Jq6ILPM_gJ9PfmqBb2df-51" value="" style="endArrow=classic;html=1;rounded=0;exitX=1;exitY=0.5;exitDx=0;exitDy=0;entryX=0;entryY=0.5;entryDx=0;entryDy=0;" parent="1" source="Jq6ILPM_gJ9PfmqBb2df-47" target="Jq6ILPM_gJ9PfmqBb2df-18" edge="1">
          <mxGeometry width="50" height="50" relative="1" as="geometry">
            <mxPoint x="910" y="880" as="sourcePoint" />
            <mxPoint x="960" y="830" as="targetPoint" />
          </mxGeometry>
        </mxCell>
        <mxCell id="Jq6ILPM_gJ9PfmqBb2df-53" value="RENTAR" style="shape=rhombus;perimeter=rhombusPerimeter;whiteSpace=wrap;html=1;align=center;" parent="1" vertex="1">
          <mxGeometry x="560" y="635" width="120" height="60" as="geometry" />
        </mxCell>
        <mxCell id="Jq6ILPM_gJ9PfmqBb2df-55" value="REALIZAR" style="shape=rhombus;perimeter=rhombusPerimeter;whiteSpace=wrap;html=1;align=center;" parent="1" vertex="1">
          <mxGeometry x="1005" y="720" width="120" height="60" as="geometry" />
        </mxCell>
        <mxCell id="Jq6ILPM_gJ9PfmqBb2df-64" value="Encuesta" style="whiteSpace=wrap;html=1;align=center;" parent="1" vertex="1">
          <mxGeometry x="1133" y="1180" width="100" height="40" as="geometry" />
        </mxCell>
        <mxCell id="Jq6ILPM_gJ9PfmqBb2df-67" value="Servicio recibido" style="ellipse;whiteSpace=wrap;html=1;align=center;" parent="1" vertex="1">
          <mxGeometry x="1013" y="1235" width="100" height="40" as="geometry" />
        </mxCell>
        <mxCell id="Jq6ILPM_gJ9PfmqBb2df-68" value="Posibilidad de volverse a hospedar" style="ellipse;whiteSpace=wrap;html=1;align=center;" parent="1" vertex="1">
          <mxGeometry x="1158" y="1240" width="155" height="60" as="geometry" />
        </mxCell>
        <mxCell id="Jq6ILPM_gJ9PfmqBb2df-69" value="Posibilidad de recomendación" style="ellipse;whiteSpace=wrap;html=1;align=center;" parent="1" vertex="1">
          <mxGeometry x="1125.5" y="1110" width="115" height="50" as="geometry" />
        </mxCell>
        <mxCell id="Jq6ILPM_gJ9PfmqBb2df-70" value="Limpieza de las instalaciones" style="ellipse;whiteSpace=wrap;html=1;align=center;" parent="1" vertex="1">
          <mxGeometry x="993" y="1175" width="115" height="50" as="geometry" />
        </mxCell>
        <mxCell id="Jq6ILPM_gJ9PfmqBb2df-72" value="" style="endArrow=none;html=1;rounded=0;exitX=0.5;exitY=1;exitDx=0;exitDy=0;entryX=0.5;entryY=0;entryDx=0;entryDy=0;" parent="1" source="Jq6ILPM_gJ9PfmqBb2df-69" target="Jq6ILPM_gJ9PfmqBb2df-64" edge="1">
          <mxGeometry width="50" height="50" relative="1" as="geometry">
            <mxPoint x="1308" y="1240" as="sourcePoint" />
            <mxPoint x="1358" y="1190" as="targetPoint" />
          </mxGeometry>
        </mxCell>
        <mxCell id="Jq6ILPM_gJ9PfmqBb2df-74" value="" style="endArrow=none;html=1;rounded=0;exitX=1;exitY=0.5;exitDx=0;exitDy=0;entryX=0;entryY=0.5;entryDx=0;entryDy=0;" parent="1" source="Jq6ILPM_gJ9PfmqBb2df-70" target="Jq6ILPM_gJ9PfmqBb2df-64" edge="1">
          <mxGeometry width="50" height="50" relative="1" as="geometry">
            <mxPoint x="1308" y="1240" as="sourcePoint" />
            <mxPoint x="1358" y="1190" as="targetPoint" />
          </mxGeometry>
        </mxCell>
        <mxCell id="Jq6ILPM_gJ9PfmqBb2df-75" value="" style="endArrow=none;html=1;rounded=0;exitX=0.5;exitY=0;exitDx=0;exitDy=0;entryX=0;entryY=1;entryDx=0;entryDy=0;" parent="1" source="Jq6ILPM_gJ9PfmqBb2df-67" target="Jq6ILPM_gJ9PfmqBb2df-64" edge="1">
          <mxGeometry width="50" height="50" relative="1" as="geometry">
            <mxPoint x="1308" y="1240" as="sourcePoint" />
            <mxPoint x="1358" y="1190" as="targetPoint" />
          </mxGeometry>
        </mxCell>
        <mxCell id="Jq6ILPM_gJ9PfmqBb2df-76" value="" style="endArrow=none;html=1;rounded=0;exitX=0.5;exitY=0;exitDx=0;exitDy=0;entryX=0.5;entryY=1;entryDx=0;entryDy=0;" parent="1" source="Jq6ILPM_gJ9PfmqBb2df-68" target="Jq6ILPM_gJ9PfmqBb2df-64" edge="1">
          <mxGeometry width="50" height="50" relative="1" as="geometry">
            <mxPoint x="1308" y="1240" as="sourcePoint" />
            <mxPoint x="1358" y="1190" as="targetPoint" />
          </mxGeometry>
        </mxCell>
        <mxCell id="Jq6ILPM_gJ9PfmqBb2df-78" value="" style="endArrow=none;html=1;rounded=0;exitX=1;exitY=0.5;exitDx=0;exitDy=0;entryX=0;entryY=0.5;entryDx=0;entryDy=0;" parent="1" source="Jq6ILPM_gJ9PfmqBb2df-64" edge="1">
          <mxGeometry width="50" height="50" relative="1" as="geometry">
            <mxPoint x="1308" y="1240" as="sourcePoint" />
            <mxPoint x="1268" y="1200" as="targetPoint" />
          </mxGeometry>
        </mxCell>
        <mxCell id="Jq6ILPM_gJ9PfmqBb2df-97" value="RESPONDER" style="shape=rhombus;perimeter=rhombusPerimeter;whiteSpace=wrap;html=1;align=center;" parent="1" vertex="1">
          <mxGeometry x="787" y="1110" width="120" height="60" as="geometry" />
        </mxCell>
        <mxCell id="Jq6ILPM_gJ9PfmqBb2df-103" value="" style="endArrow=none;html=1;rounded=0;entryX=0.3;entryY=1;entryDx=0;entryDy=0;exitX=0.5;exitY=0;exitDx=0;exitDy=0;entryPerimeter=0;" parent="1" source="Jq6ILPM_gJ9PfmqBb2df-44" target="Jq6ILPM_gJ9PfmqBb2df-41" edge="1">
          <mxGeometry width="50" height="50" relative="1" as="geometry">
            <mxPoint x="1170" y="975" as="sourcePoint" />
            <mxPoint x="1220" y="925" as="targetPoint" />
          </mxGeometry>
        </mxCell>
        <mxCell id="Jq6ILPM_gJ9PfmqBb2df-104" value="" style="endArrow=none;html=1;rounded=0;exitX=1;exitY=0.5;exitDx=0;exitDy=0;entryX=0;entryY=0.5;entryDx=0;entryDy=0;" parent="1" source="Jq6ILPM_gJ9PfmqBb2df-41" target="Jq6ILPM_gJ9PfmqBb2df-43" edge="1">
          <mxGeometry width="50" height="50" relative="1" as="geometry">
            <mxPoint x="1385" y="935" as="sourcePoint" />
            <mxPoint x="1435" y="885" as="targetPoint" />
          </mxGeometry>
        </mxCell>
        <mxCell id="Jq6ILPM_gJ9PfmqBb2df-106" value="AGREGAR" style="shape=rhombus;perimeter=rhombusPerimeter;whiteSpace=wrap;html=1;align=center;" parent="1" vertex="1">
          <mxGeometry x="1260" y="780" width="120" height="60" as="geometry" />
        </mxCell>
        <mxCell id="Jq6ILPM_gJ9PfmqBb2df-107" value="" style="endArrow=none;html=1;rounded=0;entryX=0.5;entryY=1;entryDx=0;entryDy=0;shape=link;" parent="1" edge="1">
          <mxGeometry width="50" height="50" relative="1" as="geometry">
            <mxPoint x="1320" y="920" as="sourcePoint" />
            <mxPoint x="1320" y="840.5" as="targetPoint" />
          </mxGeometry>
        </mxCell>
        <mxCell id="Jq6ILPM_gJ9PfmqBb2df-108" value="" style="endArrow=classic;html=1;rounded=0;entryX=0.5;entryY=1;entryDx=0;entryDy=0;" parent="1" target="Jq6ILPM_gJ9PfmqBb2df-26" edge="1">
          <mxGeometry width="50" height="50" relative="1" as="geometry">
            <mxPoint x="1320" y="780" as="sourcePoint" />
            <mxPoint x="1340" y="700" as="targetPoint" />
          </mxGeometry>
        </mxCell>
        <mxCell id="Jq6ILPM_gJ9PfmqBb2df-112" value="&lt;u&gt;ID_Encuesta&lt;/u&gt;" style="ellipse;whiteSpace=wrap;html=1;align=center;" parent="1" vertex="1">
          <mxGeometry x="1063" y="1280" width="100" height="40" as="geometry" />
        </mxCell>
        <mxCell id="Jq6ILPM_gJ9PfmqBb2df-113" value="" style="endArrow=none;html=1;rounded=0;exitX=0.5;exitY=0;exitDx=0;exitDy=0;entryX=0.25;entryY=1;entryDx=0;entryDy=0;" parent="1" source="Jq6ILPM_gJ9PfmqBb2df-112" target="Jq6ILPM_gJ9PfmqBb2df-64" edge="1">
          <mxGeometry width="50" height="50" relative="1" as="geometry">
            <mxPoint x="1243" y="1210" as="sourcePoint" />
            <mxPoint x="1293" y="1160" as="targetPoint" />
          </mxGeometry>
        </mxCell>
        <mxCell id="Jq6ILPM_gJ9PfmqBb2df-116" value="Id_Empleado" style="ellipse;whiteSpace=wrap;html=1;align=center;" parent="1" vertex="1">
          <mxGeometry x="-470" y="1055" width="100" height="40" as="geometry" />
        </mxCell>
        <mxCell id="Jq6ILPM_gJ9PfmqBb2df-117" value="" style="endArrow=none;html=1;rounded=0;entryX=0;entryY=0.75;entryDx=0;entryDy=0;exitX=1;exitY=0.5;exitDx=0;exitDy=0;" parent="1" source="Jq6ILPM_gJ9PfmqBb2df-116" target="mw0KVpR6ZASn544iT4bN-128" edge="1">
          <mxGeometry width="50" height="50" relative="1" as="geometry">
            <mxPoint x="-350" y="1085" as="sourcePoint" />
            <mxPoint x="-300" y="1035" as="targetPoint" />
          </mxGeometry>
        </mxCell>
        <mxCell id="Jq6ILPM_gJ9PfmqBb2df-118" value="Id_Huesped" style="ellipse;whiteSpace=wrap;html=1;align=center;" parent="1" vertex="1">
          <mxGeometry x="512.5" y="1015" width="100" height="40" as="geometry" />
        </mxCell>
        <mxCell id="Jq6ILPM_gJ9PfmqBb2df-119" value="" style="endArrow=none;html=1;rounded=0;exitX=0.5;exitY=0;exitDx=0;exitDy=0;entryX=0.5;entryY=1;entryDx=0;entryDy=0;" parent="1" source="Jq6ILPM_gJ9PfmqBb2df-118" target="mw0KVpR6ZASn544iT4bN-81" edge="1">
          <mxGeometry width="50" height="50" relative="1" as="geometry">
            <mxPoint x="720" y="1020" as="sourcePoint" />
            <mxPoint x="770" y="970" as="targetPoint" />
          </mxGeometry>
        </mxCell>
        <mxCell id="Jq6ILPM_gJ9PfmqBb2df-120" value="&lt;u&gt;Id_Evento&lt;/u&gt;" style="ellipse;whiteSpace=wrap;html=1;align=center;" parent="1" vertex="1">
          <mxGeometry x="190" y="1200" width="100" height="40" as="geometry" />
        </mxCell>
        <mxCell id="Jq6ILPM_gJ9PfmqBb2df-121" value="" style="endArrow=none;html=1;rounded=0;entryX=0;entryY=0.75;entryDx=0;entryDy=0;exitX=1;exitY=0.5;exitDx=0;exitDy=0;" parent="1" source="Jq6ILPM_gJ9PfmqBb2df-120" target="mw0KVpR6ZASn544iT4bN-268" edge="1">
          <mxGeometry width="50" height="50" relative="1" as="geometry">
            <mxPoint x="220" y="1285" as="sourcePoint" />
            <mxPoint x="270" y="1235" as="targetPoint" />
          </mxGeometry>
        </mxCell>
        <mxCell id="Jq6ILPM_gJ9PfmqBb2df-124" value="&lt;u&gt;Id_Salon&lt;/u&gt;" style="ellipse;whiteSpace=wrap;html=1;align=center;" parent="1" vertex="1">
          <mxGeometry x="772" y="1474" width="100" height="40" as="geometry" />
        </mxCell>
        <mxCell id="Jq6ILPM_gJ9PfmqBb2df-125" value="" style="endArrow=none;html=1;rounded=0;exitX=0;exitY=0.5;exitDx=0;exitDy=0;entryX=1;entryY=1;entryDx=0;entryDy=0;" parent="1" source="Jq6ILPM_gJ9PfmqBb2df-124" target="mw0KVpR6ZASn544iT4bN-247" edge="1">
          <mxGeometry width="50" height="50" relative="1" as="geometry">
            <mxPoint x="727" y="1484" as="sourcePoint" />
            <mxPoint x="777" y="1434" as="targetPoint" />
          </mxGeometry>
        </mxCell>
        <mxCell id="Jq6ILPM_gJ9PfmqBb2df-126" value="&lt;u&gt;Id_Habitacion&lt;/u&gt;" style="ellipse;whiteSpace=wrap;html=1;align=center;" parent="1" vertex="1">
          <mxGeometry x="955" y="80" width="100" height="40" as="geometry" />
        </mxCell>
        <mxCell id="Jq6ILPM_gJ9PfmqBb2df-127" value="" style="endArrow=none;html=1;rounded=0;exitX=0.25;exitY=0;exitDx=0;exitDy=0;entryX=0.5;entryY=1;entryDx=0;entryDy=0;" parent="1" source="mw0KVpR6ZASn544iT4bN-49" target="Jq6ILPM_gJ9PfmqBb2df-126" edge="1">
          <mxGeometry width="50" height="50" relative="1" as="geometry">
            <mxPoint x="1210" y="110" as="sourcePoint" />
            <mxPoint x="1260" y="60" as="targetPoint" />
          </mxGeometry>
        </mxCell>
        <mxCell id="Jq6ILPM_gJ9PfmqBb2df-130" value="&lt;u&gt;Id_pago&lt;/u&gt;" style="ellipse;whiteSpace=wrap;html=1;align=center;" parent="1" vertex="1">
          <mxGeometry x="1185" y="695" width="100" height="40" as="geometry" />
        </mxCell>
        <mxCell id="Jq6ILPM_gJ9PfmqBb2df-131" value="" style="endArrow=none;html=1;rounded=0;exitX=0.5;exitY=0;exitDx=0;exitDy=0;entryX=0;entryY=1;entryDx=0;entryDy=0;" parent="1" source="Jq6ILPM_gJ9PfmqBb2df-130" target="Jq6ILPM_gJ9PfmqBb2df-26" edge="1">
          <mxGeometry width="50" height="50" relative="1" as="geometry">
            <mxPoint x="1250" y="680" as="sourcePoint" />
            <mxPoint x="1300" y="630" as="targetPoint" />
          </mxGeometry>
        </mxCell>
        <mxCell id="Jq6ILPM_gJ9PfmqBb2df-132" value="&lt;u&gt;Id_servicio&lt;/u&gt;" style="ellipse;whiteSpace=wrap;html=1;align=center;" parent="1" vertex="1">
          <mxGeometry x="1130" y="920" width="100" height="40" as="geometry" />
        </mxCell>
        <mxCell id="Jq6ILPM_gJ9PfmqBb2df-133" value="" style="endArrow=none;html=1;rounded=0;exitX=1;exitY=0.5;exitDx=0;exitDy=0;entryX=0;entryY=0.5;entryDx=0;entryDy=0;" parent="1" source="Jq6ILPM_gJ9PfmqBb2df-132" target="Jq6ILPM_gJ9PfmqBb2df-41" edge="1">
          <mxGeometry width="50" height="50" relative="1" as="geometry">
            <mxPoint x="1220" y="900" as="sourcePoint" />
            <mxPoint x="1270" y="850" as="targetPoint" />
          </mxGeometry>
        </mxCell>
        <mxCell id="Jq6ILPM_gJ9PfmqBb2df-134" value="Sevicio" style="ellipse;whiteSpace=wrap;html=1;align=center;" parent="1" vertex="1">
          <mxGeometry x="80" y="345" width="100" height="40" as="geometry" />
        </mxCell>
        <mxCell id="Jq6ILPM_gJ9PfmqBb2df-136" value="TENER" style="shape=rhombus;perimeter=rhombusPerimeter;whiteSpace=wrap;html=1;align=center;" parent="1" vertex="1">
          <mxGeometry x="120" y="570" width="120" height="60" as="geometry" />
        </mxCell>
        <mxCell id="Jq6ILPM_gJ9PfmqBb2df-140" value="DISPONER" style="shape=rhombus;perimeter=rhombusPerimeter;whiteSpace=wrap;html=1;align=center;" parent="1" vertex="1">
          <mxGeometry x="357" y="290" width="120" height="60" as="geometry" />
        </mxCell>
        <mxCell id="Jq6ILPM_gJ9PfmqBb2df-141" value="" style="endArrow=none;html=1;rounded=0;exitX=0.896;exitY=-0.045;exitDx=0;exitDy=0;exitPerimeter=0;entryX=0;entryY=0.5;entryDx=0;entryDy=0;" parent="1" source="mw0KVpR6ZASn544iT4bN-1" target="Jq6ILPM_gJ9PfmqBb2df-140" edge="1">
          <mxGeometry width="50" height="50" relative="1" as="geometry">
            <mxPoint x="70" y="365" as="sourcePoint" />
            <mxPoint x="120" y="315" as="targetPoint" />
            <Array as="points">
              <mxPoint x="110" y="320" />
            </Array>
          </mxGeometry>
        </mxCell>
        <mxCell id="wEImqkiq318mmv_adKS5-2" value="Número de habitaciones disponibles" style="ellipse;whiteSpace=wrap;html=1;align=center;dashed=1;" parent="1" vertex="1">
          <mxGeometry x="-260" y="460" width="117" height="50" as="geometry" />
        </mxCell>
        <mxCell id="wEImqkiq318mmv_adKS5-3" value="Hora check-in" style="ellipse;whiteSpace=wrap;html=1;align=center;" parent="1" vertex="1">
          <mxGeometry x="90" y="434" width="100" height="40" as="geometry" />
        </mxCell>
        <mxCell id="wEImqkiq318mmv_adKS5-4" value="Hora check-out" style="ellipse;whiteSpace=wrap;html=1;align=center;" parent="1" vertex="1">
          <mxGeometry x="105" y="480" width="100" height="40" as="geometry" />
        </mxCell>
        <mxCell id="wEImqkiq318mmv_adKS5-5" value="" style="endArrow=none;html=1;rounded=0;entryX=0;entryY=0.5;entryDx=0;entryDy=0;exitX=1;exitY=0.75;exitDx=0;exitDy=0;" parent="1" source="mw0KVpR6ZASn544iT4bN-1" target="wEImqkiq318mmv_adKS5-3" edge="1">
          <mxGeometry width="50" height="50" relative="1" as="geometry">
            <mxPoint x="600" y="640" as="sourcePoint" />
            <mxPoint x="682.5" y="590" as="targetPoint" />
            <Array as="points" />
          </mxGeometry>
        </mxCell>
        <mxCell id="wEImqkiq318mmv_adKS5-6" value="ID Hotel" style="ellipse;whiteSpace=wrap;html=1;align=center;fontStyle=4;" parent="1" vertex="1">
          <mxGeometry x="-35" y="500" width="100" height="40" as="geometry" />
        </mxCell>
        <mxCell id="wEImqkiq318mmv_adKS5-13" value="" style="endArrow=none;html=1;rounded=0;exitX=0.5;exitY=1;exitDx=0;exitDy=0;entryX=0.5;entryY=0;entryDx=0;entryDy=0;" parent="1" source="mw0KVpR6ZASn544iT4bN-1" target="wEImqkiq318mmv_adKS5-6" edge="1">
          <mxGeometry relative="1" as="geometry">
            <mxPoint x="10" y="350" as="sourcePoint" />
            <mxPoint x="170" y="350" as="targetPoint" />
          </mxGeometry>
        </mxCell>
        <mxCell id="H6TdwIV2a9m6XgnWYG58-4" value="Comentario" style="ellipse;whiteSpace=wrap;html=1;align=center;" parent="1" vertex="1">
          <mxGeometry x="1263" y="1170" width="155" height="60" as="geometry" />
        </mxCell>
        <mxCell id="H6TdwIV2a9m6XgnWYG58-6" value="&lt;font size=&quot;1&quot; style=&quot;&quot;&gt;&lt;b style=&quot;font-size: 16px;&quot;&gt;d&lt;/b&gt;&lt;/font&gt;" style="triangle;whiteSpace=wrap;html=1;rotation=0;" parent="1" vertex="1">
          <mxGeometry x="890" y="770" width="60" height="80" as="geometry" />
        </mxCell>
        <mxCell id="H6TdwIV2a9m6XgnWYG58-7" value="" style="endArrow=none;html=1;rounded=0;exitX=0;exitY=0.5;exitDx=0;exitDy=0;entryX=0.154;entryY=1.017;entryDx=0;entryDy=0;entryPerimeter=0;shape=link;" parent="1" source="H6TdwIV2a9m6XgnWYG58-6" target="Jq6ILPM_gJ9PfmqBb2df-18" edge="1">
          <mxGeometry width="50" height="50" relative="1" as="geometry">
            <mxPoint x="915" y="718" as="sourcePoint" />
            <mxPoint x="905" y="750" as="targetPoint" />
            <Array as="points">
              <mxPoint x="870" y="810" />
            </Array>
          </mxGeometry>
        </mxCell>
        <mxCell id="H6TdwIV2a9m6XgnWYG58-8" value="Efectivo" style="whiteSpace=wrap;html=1;align=center;" parent="1" vertex="1">
          <mxGeometry x="820" y="872.5" width="100" height="40" as="geometry" />
        </mxCell>
        <mxCell id="H6TdwIV2a9m6XgnWYG58-9" value="Tarjeta" style="whiteSpace=wrap;html=1;align=center;" parent="1" vertex="1">
          <mxGeometry x="935" y="872.5" width="100" height="40" as="geometry" />
        </mxCell>
        <mxCell id="H6TdwIV2a9m6XgnWYG58-10" value="" style="endArrow=none;html=1;rounded=0;exitX=0.5;exitY=0;exitDx=0;exitDy=0;entryX=0;entryY=0.75;entryDx=0;entryDy=0;" parent="1" source="H6TdwIV2a9m6XgnWYG58-8" target="H6TdwIV2a9m6XgnWYG58-6" edge="1">
          <mxGeometry width="50" height="50" relative="1" as="geometry">
            <mxPoint x="915" y="800" as="sourcePoint" />
            <mxPoint x="915" y="760" as="targetPoint" />
          </mxGeometry>
        </mxCell>
        <mxCell id="H6TdwIV2a9m6XgnWYG58-11" value="" style="endArrow=none;html=1;rounded=0;entryX=0.5;entryY=1;entryDx=0;entryDy=0;exitX=0.25;exitY=0;exitDx=0;exitDy=0;" parent="1" source="H6TdwIV2a9m6XgnWYG58-9" target="H6TdwIV2a9m6XgnWYG58-6" edge="1">
          <mxGeometry width="50" height="50" relative="1" as="geometry">
            <mxPoint x="980" y="870" as="sourcePoint" />
            <mxPoint x="925" y="770" as="targetPoint" />
          </mxGeometry>
        </mxCell>
        <mxCell id="H6TdwIV2a9m6XgnWYG58-19" value="" style="endArrow=none;html=1;rounded=0;exitX=0.5;exitY=1;exitDx=0;exitDy=0;entryX=0.25;entryY=0;entryDx=0;entryDy=0;shape=link;" parent="1" source="Jq6ILPM_gJ9PfmqBb2df-136" target="mw0KVpR6ZASn544iT4bN-177" edge="1">
          <mxGeometry width="50" height="50" relative="1" as="geometry">
            <mxPoint x="-2" y="461" as="sourcePoint" />
            <mxPoint x="190" y="580" as="targetPoint" />
          </mxGeometry>
        </mxCell>
        <mxCell id="H6TdwIV2a9m6XgnWYG58-21" value="ATENDER" style="shape=rhombus;perimeter=rhombusPerimeter;whiteSpace=wrap;html=1;align=center;" parent="1" vertex="1">
          <mxGeometry x="10" y="1280" width="120" height="60" as="geometry" />
        </mxCell>
        <mxCell id="H6TdwIV2a9m6XgnWYG58-22" value="" style="endArrow=none;html=1;rounded=0;exitX=0;exitY=0.5;exitDx=0;exitDy=0;" parent="1" source="H6TdwIV2a9m6XgnWYG58-21" edge="1">
          <mxGeometry width="50" height="50" relative="1" as="geometry">
            <mxPoint x="40" y="1220" as="sourcePoint" />
            <mxPoint x="-50" y="1250" as="targetPoint" />
          </mxGeometry>
        </mxCell>
        <mxCell id="H6TdwIV2a9m6XgnWYG58-23" value="" style="endArrow=none;html=1;rounded=0;exitX=1;exitY=0.5;exitDx=0;exitDy=0;entryX=0.25;entryY=0;entryDx=0;entryDy=0;shape=link;" parent="1" source="H6TdwIV2a9m6XgnWYG58-21" target="mw0KVpR6ZASn544iT4bN-268" edge="1">
          <mxGeometry width="50" height="50" relative="1" as="geometry">
            <mxPoint x="50" y="1230" as="sourcePoint" />
            <mxPoint x="-98" y="1141" as="targetPoint" />
            <Array as="points">
              <mxPoint x="130" y="1140" />
              <mxPoint x="363" y="1140" />
            </Array>
          </mxGeometry>
        </mxCell>
        <mxCell id="H6TdwIV2a9m6XgnWYG58-24" value="&lt;u&gt;ID_persona&lt;/u&gt;" style="ellipse;whiteSpace=wrap;html=1;align=center;" parent="1" vertex="1">
          <mxGeometry x="412.5" y="800" width="100" height="40" as="geometry" />
        </mxCell>
        <mxCell id="H6TdwIV2a9m6XgnWYG58-25" value="" style="endArrow=none;html=1;rounded=0;exitX=1;exitY=1;exitDx=0;exitDy=0;entryX=0;entryY=0;entryDx=0;entryDy=0;" parent="1" source="mw0KVpR6ZASn544iT4bN-177" target="H6TdwIV2a9m6XgnWYG58-24" edge="1">
          <mxGeometry width="50" height="50" relative="1" as="geometry">
            <mxPoint x="410" y="775" as="sourcePoint" />
            <mxPoint x="450" y="775" as="targetPoint" />
          </mxGeometry>
        </mxCell>
        <mxCell id="H6TdwIV2a9m6XgnWYG58-26" value="Estado de membresía" style="ellipse;whiteSpace=wrap;html=1;" parent="1" vertex="1">
          <mxGeometry x="1220" y="480" width="93" height="40" as="geometry" />
        </mxCell>
        <mxCell id="H6TdwIV2a9m6XgnWYG58-27" value="" style="endArrow=none;html=1;rounded=0;exitX=0.422;exitY=-0.055;exitDx=0;exitDy=0;exitPerimeter=0;" parent="1" source="H6TdwIV2a9m6XgnWYG58-26" edge="1">
          <mxGeometry width="50" height="50" relative="1" as="geometry">
            <mxPoint x="1118" y="323" as="sourcePoint" />
            <mxPoint x="1255" y="455" as="targetPoint" />
          </mxGeometry>
        </mxCell>
        <mxCell id="H6TdwIV2a9m6XgnWYG58-28" value="" style="endArrow=none;html=1;rounded=0;exitX=0.5;exitY=0;exitDx=0;exitDy=0;" parent="1" source="Jq6ILPM_gJ9PfmqBb2df-18" edge="1">
          <mxGeometry width="50" height="50" relative="1" as="geometry">
            <mxPoint x="965" y="738" as="sourcePoint" />
            <mxPoint x="905" y="680" as="targetPoint" />
          </mxGeometry>
        </mxCell>
        <mxCell id="H6TdwIV2a9m6XgnWYG58-30" value="&lt;u&gt;ID_forma&lt;/u&gt;" style="ellipse;whiteSpace=wrap;html=1;align=center;" parent="1" vertex="1">
          <mxGeometry x="857.5" y="640" width="100" height="40" as="geometry" />
        </mxCell>
        <mxCell id="H6TdwIV2a9m6XgnWYG58-31" value="" style="endArrow=none;html=1;rounded=0;entryX=0;entryY=0.75;entryDx=0;entryDy=0;shape=link;" parent="1" edge="1">
          <mxGeometry width="50" height="50" relative="1" as="geometry">
            <mxPoint x="480" y="320" as="sourcePoint" />
            <mxPoint x="1025" y="243" as="targetPoint" />
            <Array as="points">
              <mxPoint x="680" y="320" />
              <mxPoint x="680" y="243" />
            </Array>
          </mxGeometry>
        </mxCell>
        <mxCell id="H6TdwIV2a9m6XgnWYG58-33" value="" style="endArrow=classic;html=1;rounded=0;exitX=0.5;exitY=0;exitDx=0;exitDy=0;entryX=0.92;entryY=1.035;entryDx=0;entryDy=0;entryPerimeter=0;endFill=1;" parent="1" source="Jq6ILPM_gJ9PfmqBb2df-136" target="mw0KVpR6ZASn544iT4bN-1" edge="1">
          <mxGeometry width="50" height="50" relative="1" as="geometry">
            <mxPoint x="310" y="620" as="sourcePoint" />
            <mxPoint x="360" y="570" as="targetPoint" />
          </mxGeometry>
        </mxCell>
        <mxCell id="H6TdwIV2a9m6XgnWYG58-35" value="" style="endArrow=none;html=1;rounded=0;entryX=0.447;entryY=0.01;entryDx=0;entryDy=0;entryPerimeter=0;" parent="1" target="Jq6ILPM_gJ9PfmqBb2df-136" edge="1">
          <mxGeometry width="50" height="50" relative="1" as="geometry">
            <mxPoint y="460" as="sourcePoint" />
            <mxPoint x="170" y="570" as="targetPoint" />
          </mxGeometry>
        </mxCell>
        <mxCell id="H6TdwIV2a9m6XgnWYG58-36" value="" style="endArrow=none;html=1;rounded=0;exitX=1;exitY=0.5;exitDx=0;exitDy=0;entryX=0;entryY=1;entryDx=0;entryDy=0;" parent="1" source="Jq6ILPM_gJ9PfmqBb2df-53" target="mw0KVpR6ZASn544iT4bN-49" edge="1">
          <mxGeometry width="50" height="50" relative="1" as="geometry">
            <mxPoint x="790" y="450" as="sourcePoint" />
            <mxPoint x="840" y="400" as="targetPoint" />
            <Array as="points">
              <mxPoint x="680" y="370" />
              <mxPoint x="850" y="370" />
              <mxPoint x="850" y="255" />
            </Array>
          </mxGeometry>
        </mxCell>
        <mxCell id="H6TdwIV2a9m6XgnWYG58-37" value="" style="endArrow=classic;html=1;rounded=0;exitX=0.5;exitY=1;exitDx=0;exitDy=0;" parent="1" source="Jq6ILPM_gJ9PfmqBb2df-53" edge="1">
          <mxGeometry width="50" height="50" relative="1" as="geometry">
            <mxPoint x="770" y="790" as="sourcePoint" />
            <mxPoint x="547" y="960" as="targetPoint" />
            <Array as="points">
              <mxPoint x="620" y="810" />
              <mxPoint x="547" y="810" />
            </Array>
          </mxGeometry>
        </mxCell>
        <mxCell id="H6TdwIV2a9m6XgnWYG58-38" value="" style="endArrow=none;html=1;rounded=0;entryX=0.447;entryY=1.06;entryDx=0;entryDy=0;entryPerimeter=0;" parent="1" target="Jq6ILPM_gJ9PfmqBb2df-53" edge="1">
          <mxGeometry width="50" height="50" relative="1" as="geometry">
            <mxPoint x="543" y="960" as="sourcePoint" />
            <mxPoint x="613" y="700" as="targetPoint" />
            <Array as="points">
              <mxPoint x="543" y="803" />
              <mxPoint x="613" y="803" />
            </Array>
          </mxGeometry>
        </mxCell>
        <mxCell id="H6TdwIV2a9m6XgnWYG58-39" value="" style="endArrow=classic;html=1;rounded=0;entryX=0.5;entryY=0;entryDx=0;entryDy=0;exitX=0.5;exitY=1;exitDx=0;exitDy=0;" parent="1" source="Jq6ILPM_gJ9PfmqBb2df-47" target="mw0KVpR6ZASn544iT4bN-81" edge="1">
          <mxGeometry width="50" height="50" relative="1" as="geometry">
            <mxPoint x="790" y="820" as="sourcePoint" />
            <mxPoint x="840" y="770" as="targetPoint" />
            <Array as="points">
              <mxPoint x="705" y="860" />
              <mxPoint x="563" y="860" />
            </Array>
          </mxGeometry>
        </mxCell>
        <mxCell id="H6TdwIV2a9m6XgnWYG58-40" value="" style="endArrow=none;html=1;rounded=0;exitX=0.579;exitY=0.045;exitDx=0;exitDy=0;exitPerimeter=0;" parent="1" source="mw0KVpR6ZASn544iT4bN-81" edge="1">
          <mxGeometry width="50" height="50" relative="1" as="geometry">
            <mxPoint x="570" y="950" as="sourcePoint" />
            <mxPoint x="710" y="758" as="targetPoint" />
            <Array as="points">
              <mxPoint x="570" y="868" />
              <mxPoint x="710" y="868" />
            </Array>
          </mxGeometry>
        </mxCell>
        <mxCell id="H6TdwIV2a9m6XgnWYG58-41" value="" style="endArrow=none;html=1;rounded=0;entryX=0.392;entryY=0.057;entryDx=0;entryDy=0;entryPerimeter=0;" parent="1" edge="1">
          <mxGeometry width="50" height="50" relative="1" as="geometry">
            <mxPoint x="791" y="984" as="sourcePoint" />
            <mxPoint x="870.1999999999998" y="983.78" as="targetPoint" />
          </mxGeometry>
        </mxCell>
        <mxCell id="H6TdwIV2a9m6XgnWYG58-42" value="" style="endArrow=classic;html=1;rounded=0;exitX=0.5;exitY=0;exitDx=0;exitDy=0;entryX=0.5;entryY=1;entryDx=0;entryDy=0;" parent="1" source="IOKUqTTzy_7AiuUjhLA8-16" target="mw0KVpR6ZASn544iT4bN-268" edge="1">
          <mxGeometry width="50" height="50" relative="1" as="geometry">
            <mxPoint x="670" y="1480" as="sourcePoint" />
            <mxPoint x="390" y="1250" as="targetPoint" />
          </mxGeometry>
        </mxCell>
        <mxCell id="H6TdwIV2a9m6XgnWYG58-43" value="" style="endArrow=none;html=1;rounded=0;" parent="1" edge="1">
          <mxGeometry width="50" height="50" relative="1" as="geometry">
            <mxPoint x="391" y="1320" as="sourcePoint" />
            <mxPoint x="391" y="1240" as="targetPoint" />
          </mxGeometry>
        </mxCell>
        <mxCell id="H6TdwIV2a9m6XgnWYG58-44" value="" style="endArrow=classic;html=1;rounded=0;entryX=1;entryY=1;entryDx=0;entryDy=0;exitX=0;exitY=0.5;exitDx=0;exitDy=0;" parent="1" source="Jq6ILPM_gJ9PfmqBb2df-97" target="mw0KVpR6ZASn544iT4bN-81" edge="1">
          <mxGeometry width="50" height="50" relative="1" as="geometry">
            <mxPoint x="690" y="1040" as="sourcePoint" />
            <mxPoint x="740" y="990" as="targetPoint" />
          </mxGeometry>
        </mxCell>
        <mxCell id="H6TdwIV2a9m6XgnWYG58-45" value="" style="endArrow=classic;html=1;rounded=0;entryX=0;entryY=0;entryDx=0;entryDy=0;exitX=1;exitY=0.5;exitDx=0;exitDy=0;" parent="1" source="Jq6ILPM_gJ9PfmqBb2df-97" target="Jq6ILPM_gJ9PfmqBb2df-64" edge="1">
          <mxGeometry width="50" height="50" relative="1" as="geometry">
            <mxPoint x="690" y="1040" as="sourcePoint" />
            <mxPoint x="740" y="990" as="targetPoint" />
          </mxGeometry>
        </mxCell>
        <mxCell id="H6TdwIV2a9m6XgnWYG58-46" value="" style="endArrow=none;html=1;rounded=0;" parent="1" edge="1">
          <mxGeometry width="50" height="50" relative="1" as="geometry">
            <mxPoint x="782" y="1138" as="sourcePoint" />
            <mxPoint x="620" y="1010" as="targetPoint" />
          </mxGeometry>
        </mxCell>
        <mxCell id="H6TdwIV2a9m6XgnWYG58-47" value="" style="endArrow=none;html=1;rounded=0;exitX=0.962;exitY=0.397;exitDx=0;exitDy=0;exitPerimeter=0;" parent="1" edge="1">
          <mxGeometry width="50" height="50" relative="1" as="geometry">
            <mxPoint x="904.44" y="1135.82" as="sourcePoint" />
            <mxPoint x="1122" y="1174" as="targetPoint" />
          </mxGeometry>
        </mxCell>
        <mxCell id="H6TdwIV2a9m6XgnWYG58-48" value="" style="endArrow=classic;html=1;rounded=0;entryX=1;entryY=0.5;entryDx=0;entryDy=0;exitX=0;exitY=0.5;exitDx=0;exitDy=0;" parent="1" source="Jq6ILPM_gJ9PfmqBb2df-55" target="Jq6ILPM_gJ9PfmqBb2df-18" edge="1">
          <mxGeometry width="50" height="50" relative="1" as="geometry">
            <mxPoint x="1070" y="820" as="sourcePoint" />
            <mxPoint x="1120" y="770" as="targetPoint" />
          </mxGeometry>
        </mxCell>
        <mxCell id="H6TdwIV2a9m6XgnWYG58-49" value="" style="endArrow=classic;html=1;rounded=0;entryX=0;entryY=0.5;entryDx=0;entryDy=0;exitX=1;exitY=0.5;exitDx=0;exitDy=0;" parent="1" source="Jq6ILPM_gJ9PfmqBb2df-55" target="Jq6ILPM_gJ9PfmqBb2df-26" edge="1">
          <mxGeometry width="50" height="50" relative="1" as="geometry">
            <mxPoint x="1070" y="820" as="sourcePoint" />
            <mxPoint x="1120" y="770" as="targetPoint" />
            <Array as="points">
              <mxPoint x="1125" y="660" />
            </Array>
          </mxGeometry>
        </mxCell>
        <mxCell id="H6TdwIV2a9m6XgnWYG58-50" value="" style="endArrow=none;html=1;rounded=0;" parent="1" edge="1">
          <mxGeometry width="50" height="50" relative="1" as="geometry">
            <mxPoint x="965" y="736" as="sourcePoint" />
            <mxPoint x="1005" y="755" as="targetPoint" />
          </mxGeometry>
        </mxCell>
        <mxCell id="H6TdwIV2a9m6XgnWYG58-51" value="" style="endArrow=none;html=1;rounded=0;entryX=0.958;entryY=0.39;entryDx=0;entryDy=0;entryPerimeter=0;" parent="1" edge="1">
          <mxGeometry width="50" height="50" relative="1" as="geometry">
            <mxPoint x="1260" y="655" as="sourcePoint" />
            <mxPoint x="1119.96" y="748.4000000000001" as="targetPoint" />
            <Array as="points">
              <mxPoint x="1120" y="655" />
            </Array>
          </mxGeometry>
        </mxCell>
        <mxCell id="H6TdwIV2a9m6XgnWYG58-54" value="Piscina" style="ellipse;whiteSpace=wrap;html=1;align=center;" parent="1" vertex="1">
          <mxGeometry x="240" y="330" width="100" height="30" as="geometry" />
        </mxCell>
        <mxCell id="H6TdwIV2a9m6XgnWYG58-55" value="Estacionamiento" style="ellipse;whiteSpace=wrap;html=1;align=center;" parent="1" vertex="1">
          <mxGeometry x="240" y="366" width="100" height="30" as="geometry" />
        </mxCell>
        <mxCell id="H6TdwIV2a9m6XgnWYG58-56" value="Bar" style="ellipse;whiteSpace=wrap;html=1;align=center;" parent="1" vertex="1">
          <mxGeometry x="242" y="442" width="100" height="28" as="geometry" />
        </mxCell>
        <mxCell id="H6TdwIV2a9m6XgnWYG58-57" value="Restaurante" style="ellipse;whiteSpace=wrap;html=1;align=center;" parent="1" vertex="1">
          <mxGeometry x="241" y="403" width="100" height="30" as="geometry" />
        </mxCell>
        <mxCell id="H6TdwIV2a9m6XgnWYG58-58" value="" style="endArrow=none;html=1;rounded=0;exitX=0;exitY=0.5;exitDx=0;exitDy=0;entryX=1;entryY=0.5;entryDx=0;entryDy=0;" parent="1" source="H6TdwIV2a9m6XgnWYG58-54" target="Jq6ILPM_gJ9PfmqBb2df-134" edge="1">
          <mxGeometry width="50" height="50" relative="1" as="geometry">
            <mxPoint x="10" y="430" as="sourcePoint" />
            <mxPoint x="90" y="375" as="targetPoint" />
          </mxGeometry>
        </mxCell>
        <mxCell id="H6TdwIV2a9m6XgnWYG58-59" value="" style="endArrow=none;html=1;rounded=0;exitX=0;exitY=0.5;exitDx=0;exitDy=0;entryX=1;entryY=0.5;entryDx=0;entryDy=0;" parent="1" source="H6TdwIV2a9m6XgnWYG58-55" target="Jq6ILPM_gJ9PfmqBb2df-134" edge="1">
          <mxGeometry width="50" height="50" relative="1" as="geometry">
            <mxPoint x="250" y="355" as="sourcePoint" />
            <mxPoint x="190" y="375" as="targetPoint" />
          </mxGeometry>
        </mxCell>
        <mxCell id="H6TdwIV2a9m6XgnWYG58-60" value="" style="endArrow=none;html=1;rounded=0;exitX=0;exitY=0.5;exitDx=0;exitDy=0;entryX=1;entryY=0.5;entryDx=0;entryDy=0;" parent="1" source="H6TdwIV2a9m6XgnWYG58-57" target="Jq6ILPM_gJ9PfmqBb2df-134" edge="1">
          <mxGeometry width="50" height="50" relative="1" as="geometry">
            <mxPoint x="260" y="365" as="sourcePoint" />
            <mxPoint x="200" y="385" as="targetPoint" />
          </mxGeometry>
        </mxCell>
        <mxCell id="H6TdwIV2a9m6XgnWYG58-61" value="" style="endArrow=none;html=1;rounded=0;exitX=0;exitY=0.5;exitDx=0;exitDy=0;entryX=1;entryY=0.5;entryDx=0;entryDy=0;" parent="1" source="H6TdwIV2a9m6XgnWYG58-56" target="Jq6ILPM_gJ9PfmqBb2df-134" edge="1">
          <mxGeometry width="50" height="50" relative="1" as="geometry">
            <mxPoint x="270" y="375" as="sourcePoint" />
            <mxPoint x="210" y="395" as="targetPoint" />
          </mxGeometry>
        </mxCell>
        <mxCell id="H6TdwIV2a9m6XgnWYG58-62" value="Nombre huésped" style="ellipse;whiteSpace=wrap;html=1;align=center;" parent="1" vertex="1">
          <mxGeometry x="420" y="1260" width="100" height="40" as="geometry" />
        </mxCell>
        <mxCell id="H6TdwIV2a9m6XgnWYG58-63" value="Número membresía" style="ellipse;whiteSpace=wrap;html=1;align=center;" parent="1" vertex="1">
          <mxGeometry x="257" y="1260" width="100" height="40" as="geometry" />
        </mxCell>
        <mxCell id="H6TdwIV2a9m6XgnWYG58-64" value="" style="endArrow=none;html=1;rounded=0;entryX=0.25;entryY=1;entryDx=0;entryDy=0;exitX=0.75;exitY=0.065;exitDx=0;exitDy=0;exitPerimeter=0;" parent="1" source="H6TdwIV2a9m6XgnWYG58-63" target="mw0KVpR6ZASn544iT4bN-268" edge="1">
          <mxGeometry width="50" height="50" relative="1" as="geometry">
            <mxPoint x="300" y="1230" as="sourcePoint" />
            <mxPoint x="348" y="1230" as="targetPoint" />
          </mxGeometry>
        </mxCell>
        <mxCell id="H6TdwIV2a9m6XgnWYG58-65" value="" style="endArrow=none;html=1;rounded=0;entryX=0.272;entryY=0.005;entryDx=0;entryDy=0;exitX=0.75;exitY=1;exitDx=0;exitDy=0;entryPerimeter=0;" parent="1" source="mw0KVpR6ZASn544iT4bN-268" target="H6TdwIV2a9m6XgnWYG58-62" edge="1">
          <mxGeometry width="50" height="50" relative="1" as="geometry">
            <mxPoint x="310" y="1240" as="sourcePoint" />
            <mxPoint x="358" y="1240" as="targetPoint" />
          </mxGeometry>
        </mxCell>
        <mxCell id="H6TdwIV2a9m6XgnWYG58-66" value="RFC Personal de apoyo responsable" style="ellipse;whiteSpace=wrap;html=1;align=center;" parent="1" vertex="1">
          <mxGeometry x="440" y="1514" width="172.5" height="40" as="geometry" />
        </mxCell>
        <mxCell id="H6TdwIV2a9m6XgnWYG58-67" value="" style="endArrow=none;html=1;rounded=0;exitX=1;exitY=0;exitDx=0;exitDy=0;entryX=0;entryY=1;entryDx=0;entryDy=0;" parent="1" source="H6TdwIV2a9m6XgnWYG58-66" target="mw0KVpR6ZASn544iT4bN-247" edge="1">
          <mxGeometry width="50" height="50" relative="1" as="geometry">
            <mxPoint x="677" y="1544" as="sourcePoint" />
            <mxPoint x="677" y="1504" as="targetPoint" />
          </mxGeometry>
        </mxCell>
        <mxCell id="H6TdwIV2a9m6XgnWYG58-68" value="Disponibilidad" style="ellipse;whiteSpace=wrap;html=1;align=center;" parent="1" vertex="1">
          <mxGeometry x="190" y="1330" width="100" height="40" as="geometry" />
        </mxCell>
        <mxCell id="H6TdwIV2a9m6XgnWYG58-69" value="" style="endArrow=none;html=1;rounded=0;exitX=1;exitY=0.5;exitDx=0;exitDy=0;" parent="1" source="H6TdwIV2a9m6XgnWYG58-68" edge="1">
          <mxGeometry width="50" height="50" relative="1" as="geometry">
            <mxPoint x="279.5" y="1376" as="sourcePoint" />
            <mxPoint x="330" y="1350" as="targetPoint" />
          </mxGeometry>
        </mxCell>
        <mxCell id="H6TdwIV2a9m6XgnWYG58-70" value="Num_personas" style="ellipse;whiteSpace=wrap;html=1;align=center;" parent="1" vertex="1">
          <mxGeometry x="105" y="1384" width="100" height="40" as="geometry" />
        </mxCell>
        <mxCell id="H6TdwIV2a9m6XgnWYG58-71" value="Horario deseado" style="ellipse;whiteSpace=wrap;html=1;align=center;" parent="1" vertex="1">
          <mxGeometry x="240" y="1394" width="100" height="40" as="geometry" />
        </mxCell>
        <mxCell id="H6TdwIV2a9m6XgnWYG58-72" value="" style="endArrow=none;html=1;rounded=0;exitX=0.772;exitY=0.955;exitDx=0;exitDy=0;exitPerimeter=0;entryX=0.5;entryY=0;entryDx=0;entryDy=0;" parent="1" source="H6TdwIV2a9m6XgnWYG58-68" target="H6TdwIV2a9m6XgnWYG58-71" edge="1">
          <mxGeometry width="50" height="50" relative="1" as="geometry">
            <mxPoint x="300" y="1360" as="sourcePoint" />
            <mxPoint x="340" y="1360" as="targetPoint" />
          </mxGeometry>
        </mxCell>
        <mxCell id="H6TdwIV2a9m6XgnWYG58-73" value="" style="endArrow=none;html=1;rounded=0;exitX=0.068;exitY=0.815;exitDx=0;exitDy=0;exitPerimeter=0;entryX=0.654;entryY=0.065;entryDx=0;entryDy=0;entryPerimeter=0;" parent="1" source="H6TdwIV2a9m6XgnWYG58-68" target="H6TdwIV2a9m6XgnWYG58-70" edge="1">
          <mxGeometry width="50" height="50" relative="1" as="geometry">
            <mxPoint x="277" y="1378" as="sourcePoint" />
            <mxPoint x="288" y="1394" as="targetPoint" />
          </mxGeometry>
        </mxCell>
        <mxCell id="H6TdwIV2a9m6XgnWYG58-74" value="Niño" style="ellipse;whiteSpace=wrap;html=1;align=center;" parent="1" vertex="1">
          <mxGeometry x="1318" y="495" width="100" height="50" as="geometry" />
        </mxCell>
        <mxCell id="H6TdwIV2a9m6XgnWYG58-75" value="Adulto" style="ellipse;whiteSpace=wrap;html=1;align=center;" parent="1" vertex="1">
          <mxGeometry x="1397.5" y="550" width="100" height="50" as="geometry" />
        </mxCell>
        <mxCell id="H6TdwIV2a9m6XgnWYG58-76" value="" style="endArrow=none;html=1;rounded=0;exitX=0.5;exitY=0;exitDx=0;exitDy=0;entryX=0.292;entryY=1.032;entryDx=0;entryDy=0;entryPerimeter=0;" parent="1" source="Jq6ILPM_gJ9PfmqBb2df-28" target="H6TdwIV2a9m6XgnWYG58-74" edge="1">
          <mxGeometry width="50" height="50" relative="1" as="geometry">
            <mxPoint x="1332" y="565" as="sourcePoint" />
            <mxPoint x="1360" y="550" as="targetPoint" />
            <Array as="points" />
          </mxGeometry>
        </mxCell>
        <mxCell id="H6TdwIV2a9m6XgnWYG58-77" value="" style="endArrow=none;html=1;rounded=0;exitX=0.996;exitY=0.284;exitDx=0;exitDy=0;entryX=0;entryY=0.5;entryDx=0;entryDy=0;exitPerimeter=0;" parent="1" source="Jq6ILPM_gJ9PfmqBb2df-28" target="H6TdwIV2a9m6XgnWYG58-75" edge="1">
          <mxGeometry width="50" height="50" relative="1" as="geometry">
            <mxPoint x="1330" y="580" as="sourcePoint" />
            <mxPoint x="1357" y="557" as="targetPoint" />
            <Array as="points" />
          </mxGeometry>
        </mxCell>
      </root>
    </mxGraphModel>
  </diagram>
</mxfile>
